<svg xmlns="http://www.w3.org/2000/svg" xmlns:xlink="http://www.w3.org/1999/xlink" width="536" height="482.808" viewBox="0 0 536 482.808">
  <defs>
    <linearGradient id="linear-gradient" x1="0.504" y1="0.317" x2="0.482" y2="1.249" gradientUnits="objectBoundingBox">
      <stop offset="0.03" stop-color="#fff"/>
      <stop offset="1" stop-color="#fff" stop-opacity="0"/>
    </linearGradient>
  </defs>
  <g id="image_baner" data-name="image baner" transform="translate(-691 -196.192)">
    <g id="bg-22" transform="translate(667.667 187.116)">
      <path id="Path_1" data-name="Path 1" d="M819.986,345.5S834,331.02,836.452,313.7s18.135-21.428,28.853-18.135,20.627,33.291,47.047,33.134,70.9-21.593,72.547-27.363,4.124-16.466,22.259-18.958,18.958-19.789,45.341-19.789,72.824,4.423,76.948,6.07,23.606,4.386,27.693,27.228c0,0,3.315,9.61-2.455,36.794s34.623,44.5,44.517,44.5,38.747,61.006,6.594,112.94-28.029,71.716-61.829,51.111-30.5.823-33.8-20.612-19.782-9.894-24.7-21.436,12.364-34.623.823-39.57-40.416,4.124-46.164-25.552-41.224,5.771-24.7,32.977-18.135,6.594-18.135,23.082-19.781,29.676-9.894,42.04,35.454,81.618-43.687,79.964-34.631,14.018-51.112,15.665-25.627-20.612-52.009-20.612S723.534,602.242,726,562.672s26.255-32.183,25.9-66.776S711.648,421.283,772,384.8,819.986,345.5,819.986,345.5Z" transform="translate(-661.244 -183.41)" fill="#ebebeb"/>
      <rect id="Rectangle_5" data-name="Rectangle 5" width="127.602" height="298.009" transform="translate(23.333 70.498)" fill="url(#linear-gradient)"/>
      <circle id="Ellipse_1" data-name="Ellipse 1" cx="20.088" cy="20.088" r="20.088" transform="translate(70.575 83.619)" fill="#ebebeb"/>
      <rect id="Rectangle_6" data-name="Rectangle 6" width="72.053" height="7.971" rx="3.985" transform="translate(35.383 145.29)" fill="#ebebeb"/>
      <rect id="Rectangle_7" data-name="Rectangle 7" width="17.783" height="7.971" rx="3.985" transform="translate(124.276 145.29)" fill="#ebebeb"/>
      <rect id="Rectangle_8" data-name="Rectangle 8" width="49.854" height="7.971" rx="3.985" transform="translate(35.383 162.093)" fill="#ebebeb"/>
      <rect id="Rectangle_9" data-name="Rectangle 9" width="8.892" height="7.971" rx="3.985" transform="translate(133.16 162.093)" fill="#ebebeb"/>
      <rect id="Rectangle_10" data-name="Rectangle 10" width="79.597" height="7.971" rx="3.985" transform="translate(36.004 180.767)" fill="#ebebeb"/>
      <rect id="Rectangle_11" data-name="Rectangle 11" width="12.754" height="7.971" rx="3.985" transform="translate(129.919 180.767)" fill="#ebebeb"/>
      <rect id="Rectangle_12" data-name="Rectangle 12" width="66.754" height="7.971" rx="3.985" transform="translate(36.004 197.412)" fill="#ebebeb"/>
      <rect id="Rectangle_13" data-name="Rectangle 13" width="17.783" height="7.971" rx="3.985" transform="translate(124.897 197.412)" fill="#ebebeb"/>
      <rect id="Rectangle_14" data-name="Rectangle 14" width="39.802" height="7.971" rx="3.985" transform="translate(36.004 214.836)" fill="#ebebeb"/>
      <rect id="Rectangle_15" data-name="Rectangle 15" width="24.542" height="7.971" rx="3.985" transform="translate(118.138 214.836)" fill="#ebebeb"/>
      <rect id="Rectangle_16" data-name="Rectangle 16" width="65.167" height="7.971" rx="3.985" transform="translate(36.004 231.639)" fill="#ebebeb"/>
      <rect id="Rectangle_17" data-name="Rectangle 17" width="17.783" height="7.971" rx="3.985" transform="translate(124.897 231.639)" fill="#ebebeb"/>
      <path id="Path_2" data-name="Path 2" d="M1123.282,612.381a23.308,23.308,0,0,1,3.54-27.041c4.738-5.045,8.592-11.593,8.278-19.385-.749-19.459,17.9-26.458,21.016-17.9s1.557,38.171,14,40.468,31.135,16.466,16.346,34.294-21.009-10.171-14.79,17.85-29.571,51.089-38.171,29.818-34.982-13.742-16.339-28.261C1129.622,632.522,1128.028,621.243,1123.282,612.381Z" transform="translate(-758.015 -254.315)" fill="#ebebeb"/>
      <path id="Path_3" data-name="Path 3" d="M1240.56,330.17l2.05-2.17" transform="translate(-790.696 -199.864)" fill="none" stroke="#fff" stroke-linecap="round" stroke-miterlimit="10" stroke-width="1"/>
      <path id="Path_4" data-name="Path 4" d="M1247.66,319.312c3.039-3.226,7.088-7.544,11.361-12.132" transform="translate(-792.482 -194.626)" fill="none" stroke="#fff" stroke-linecap="round" stroke-miterlimit="10" stroke-width="1" stroke-dasharray="6.35 6.35"/>
      <path id="Path_5" data-name="Path 5" d="M1265,304.11l2.036-2.2" transform="translate(-796.843 -193.301)" fill="none" stroke="#fff" stroke-linecap="round" stroke-miterlimit="10" stroke-width="1"/>
      <circle id="Ellipse_2" data-name="Ellipse 2" cx="5.748" cy="5.748" r="5.748" transform="translate(464.444 100.99)" fill="#fff"/>
      <circle id="Ellipse_3" data-name="Ellipse 3" cx="5.748" cy="5.748" r="5.748" transform="translate(437.508 130.733)" fill="#fff"/>
      <path id="Path_6" data-name="Path 6" d="M854,534.294s.292-1,1-2.814" transform="translate(-693.455 -251.05)" fill="none" stroke="#fff" stroke-linecap="round" stroke-miterlimit="10" stroke-width="1"/>
      <path id="Path_7" data-name="Path 7" d="M858.58,486.462c11.459-23.905,56.246-92.306,199.4-112.042" transform="translate(-694.607 -211.541)" fill="none" stroke="#fff" stroke-linecap="round" stroke-miterlimit="10" stroke-width="1" stroke-dasharray="8.03 8.03"/>
      <path id="Path_8" data-name="Path 8" d="M1129,373.752l2.993-.382" transform="translate(-762.632 -211.277)" fill="none" stroke="#fff" stroke-linecap="round" stroke-miterlimit="10" stroke-width="1"/>
      <path id="Path_9" data-name="Path 9" d="M846.26,543.47s.546.921,1.549,2.552" transform="translate(-691.508 -254.066)" fill="none" stroke="#fff" stroke-linecap="round" stroke-miterlimit="10" stroke-width="1"/>
      <path id="Path_10" data-name="Path 10" d="M852.79,554c8.764,13.8,27.865,42.16,45.184,56.343" transform="translate(-693.15 -256.715)" fill="none" stroke="#fff" stroke-linecap="round" stroke-miterlimit="10" stroke-width="1" stroke-dasharray="8.42 8.42"/>
      <path id="Path_11" data-name="Path 11" d="M916.48,631.9c.816.614,1.632,1.19,2.44,1.721" transform="translate(-709.172 -276.311)" fill="none" stroke="#fff" stroke-linecap="round" stroke-miterlimit="10" stroke-width="1"/>
      <circle id="Ellipse_4" data-name="Ellipse 4" cx="25.694" cy="25.694" r="25.694" transform="translate(129.058 262.849)" fill="none" stroke="#fff" stroke-miterlimit="10" stroke-width="4"/>
      <circle id="Ellipse_5" data-name="Ellipse 5" cx="10.194" cy="10.194" r="10.194" transform="translate(144.558 279.21)" fill="#fff"/>
      <circle id="Ellipse_6" data-name="Ellipse 6" cx="25.694" cy="25.694" r="25.694" transform="translate(389.689 133.36)" fill="none" stroke="#fff" stroke-miterlimit="10" stroke-width="4"/>
      <circle id="Ellipse_7" data-name="Ellipse 7" cx="10.194" cy="10.194" r="10.194" transform="translate(405.19 149.729)" fill="#fff"/>
      <circle id="Ellipse_8" data-name="Ellipse 8" cx="5.748" cy="5.748" r="5.748" transform="translate(372.902 155.484)" fill="#fff"/>
      <circle id="Ellipse_9" data-name="Ellipse 9" cx="5.748" cy="5.748" r="5.748" transform="translate(204 351.57)" fill="#fff"/>
      <rect id="Rectangle_18" data-name="Rectangle 18" width="63.513" height="3.982" rx="1.991" transform="translate(224.388 357.318)" fill="#f8f8ff"/>
      <rect id="Rectangle_19" data-name="Rectangle 19" width="63.513" height="3.982" rx="1.991" transform="translate(224.388 368.507)" fill="#f8f8ff"/>
      <rect id="Rectangle_20" data-name="Rectangle 20" width="63.513" height="3.982" rx="1.991" transform="translate(224.388 382.608)" fill="#f8f8ff"/>
      <rect id="Rectangle_21" data-name="Rectangle 21" width="40.671" height="3.982" rx="1.991" transform="translate(224.388 393.842)" fill="#f8f8ff"/>
      <path id="Path_12" data-name="Path 12" d="M927.42,634.2s1.041.172,2.994.412" transform="translate(-711.924 -276.89)" fill="none" stroke="#bac5f4" stroke-miterlimit="10" stroke-width="1"/>
      <path id="Path_13" data-name="Path 13" d="M939.19,574.314c41.165,3.922,212.147,8.847,191.767-182.344" transform="translate(-714.885 -215.956)" fill="none" stroke="#bac5f4" stroke-miterlimit="10" stroke-width="1" stroke-dasharray="7.86 7.86"/>
      <path id="Path_14" data-name="Path 14" d="M1194.879,387.044c-.112-.988-.232-1.976-.359-2.994" transform="translate(-779.114 -213.963)" fill="none" stroke="#bac5f4" stroke-miterlimit="10" stroke-width="1"/>
      <path id="Path_15" data-name="Path 15" d="M1354.366,378s-12.162-12.372-.749-21.129,14.475-8.233,14.572.494-8.442,10.052-3.271,19.25-1.085,11.608-4.954,9.61S1354.366,378,1354.366,378Z" transform="translate(-817.907 -205.537)" fill="#ebebeb"/>
      <path id="Path_16" data-name="Path 16" d="M1349.953,389.319s.749,6.736,6.833,9.632,16.414,9.73,15.5,15.156-13.008-9.73-16.8-8.4-12.065-3.63-14.55-10-2.013-11.436,1.744-11.391S1349.953,389.319,1349.953,389.319Z" transform="translate(-815.559 -214.031)" fill="#ebebeb"/>
      <path id="Path_18" data-name="Path 18" d="M662.1,796.1h95.7c15.373,0,24.137-18.008,14.221-29.781-5.786-6.886-16.346-12.035-35.259-11.294,0,0-26.42-50.146-63.453-.067,0,0-30.454-2.994-32.789,16.5a4.849,4.849,0,0,1-.067.576A21.705,21.705,0,0,0,662.1,796.1Z" transform="translate(-485.11 -723.64)" fill="#ebebeb"/>
    </g>
    <g id="coronavirus" transform="translate(706 214.079)">
      <g id="Group_11" data-name="Group 11" transform="translate(0 4.921)">
        <g id="XMLID_427_" transform="translate(0)">
          <g id="Group_4" data-name="Group 4">
            <path id="Path_128" data-name="Path 128" d="M74.553,42.868a2.4,2.4,0,0,1,1.892,2.815l-.948,4.83a2.4,2.4,0,0,1-2.927,1.866A2.442,2.442,0,0,1,70.8,49.525l.026-.13-6.252.285a.452.452,0,0,0-.41.313A26.9,26.9,0,0,1,61.78,55.24a.455.455,0,0,0,.042.526l2.765,3.285a2.886,2.886,0,0,1,4.28,3.848l-.8,1.047a2.932,2.932,0,0,1-3.971.68,2.887,2.887,0,0,1-1.1-3.3l-3.984-1.75a.455.455,0,0,0-.52.113,27.188,27.188,0,0,1-6.369,5.159.455.455,0,0,0-.221.467l1.019,6.218.882-.353a2.4,2.4,0,0,1,3.158,1.445,2.441,2.441,0,0,1-1.439,3.032l-4.508,1.8a2.4,2.4,0,0,1-3.157-1.445A2.443,2.443,0,0,1,49.3,72.98l.122-.048-3.637-5.1a.453.453,0,0,0-.486-.174,27.175,27.175,0,0,1-12.23.318.459.459,0,0,0-.477.2l-3.638,5.708.128.046a2.916,2.916,0,0,1,1.741,3.741,2.034,2.034,0,0,1-2.916,2.04l-4.471-1.63a2.915,2.915,0,0,1-1.76-3.687A2.978,2.978,0,0,1,25.5,72.632l.1.037.74-6.689a.455.455,0,0,0-.245-.455,27.131,27.131,0,0,1-7.511-5.734.455.455,0,0,0-.507-.114l-5.456,2.238a2.568,2.568,0,0,1-.856,3.356,2.619,2.619,0,0,1-3.564-.74l-1.4-2.013a2.615,2.615,0,0,1,.477-3.539,2.568,2.568,0,0,1,3.643.467L14.772,55.1a.455.455,0,0,0,.056-.523,26.856,26.856,0,0,1-3.121-9.357.454.454,0,0,0-.347-.382L5.218,43.422l-.006.72a2.63,2.63,0,0,1-2.63,2.6A2.582,2.582,0,0,1,0,44.142l.04-4.462a2.662,2.662,0,0,1,2.676-2.65A2.605,2.605,0,0,1,5.252,39.65l6.1-1.43a.454.454,0,0,0,.347-.384,26.855,26.855,0,0,1,3.362-9.85.456.456,0,0,0-.046-.523L12.1,24.049l-.253.333a2.287,2.287,0,0,1-3.29.376,2.33,2.33,0,0,1-.319-3.188l1.937-2.56a2.286,2.286,0,0,1,3.754,2.6L18,23.373a.458.458,0,0,0,.518-.113,27.109,27.109,0,0,1,6.661-5.316.459.459,0,0,0,.227-.464l-.936-6.232-.888.342A2.4,2.4,0,0,1,20.443,10.1,2.441,2.441,0,0,1,21.922,7.09l4.531-1.743A2.4,2.4,0,0,1,29.59,6.834a2.441,2.441,0,0,1-1.479,3.014l-.122.046,3.566,5.142a.454.454,0,0,0,.483.182,27.075,27.075,0,0,1,6.456-.776h0a.456.456,0,0,0,.433-.3l1.181-3.3a3.034,3.034,0,0,1-2.105-3.249,3.1,3.1,0,0,1,3.462-2.642l1.622.2A3.085,3.085,0,0,1,45.8,8.5a3.034,3.034,0,0,1-2.249,2.6l.41,3.581a.454.454,0,0,0,.356.392,26.878,26.878,0,0,1,7.688,2.987.454.454,0,0,0,.515-.04l4.893-3.971-.743-.591A2.4,2.4,0,0,1,56.361,10a2.44,2.44,0,0,1,3.347-.256l3.8,3.018a2.4,2.4,0,0,1,.313,3.458,2.443,2.443,0,0,1-3.347.256l-.1-.082-2.62,5.689a.453.453,0,0,0,.089.509A27.109,27.109,0,0,1,62.487,29a.457.457,0,0,0,.467.242l3.715-.52A2.89,2.89,0,0,1,68.491,25a2.936,2.936,0,0,1,3.632,1.8l.856,2.295a2.942,2.942,0,0,1-1.527,3.729,2.891,2.891,0,0,1-3.626-1.149l-3.083,2.091a.453.453,0,0,0-.182.5,27.091,27.091,0,0,1,.973,7.215q0,.627-.029,1.245a.457.457,0,0,0,.271.44l5.78,2.525.182-.933a2.4,2.4,0,0,1,2.815-1.892Z" transform="translate(0 -4.921)" fill="#f79595"/>
          </g>
        </g>
        <ellipse id="Ellipse_17" data-name="Ellipse 17" cx="3.818" cy="3.192" rx="3.818" ry="3.192" transform="translate(46.417 20.058)" fill="#ee6161"/>
        <circle id="Ellipse_18" data-name="Ellipse 18" cx="4.173" cy="4.173" r="4.173" transform="translate(32.284 38.956)" fill="#ee6161"/>
        <circle id="Ellipse_19" data-name="Ellipse 19" cx="2.988" cy="2.988" r="2.988" transform="translate(49.733 37.968)" fill="#f9b1b1"/>
        <circle id="Ellipse_20" data-name="Ellipse 20" cx="2.905" cy="2.905" r="2.905" transform="translate(38.781 52.632)" fill="#f9b1b1"/>
        <g id="Group_5" data-name="Group 5" transform="translate(0 0.266)">
          <path id="Path_129" data-name="Path 129" d="M22.047,41.65A31.961,31.961,0,0,1,34.685,16.168a26.892,26.892,0,0,0-2.648.51.454.454,0,0,1-.483-.182l-3.566-5.142.122-.046A2.441,2.441,0,0,0,29.59,8.294a2.4,2.4,0,0,0-3.137-1.487L21.922,8.55a2.441,2.441,0,0,0-1.479,3.014,2.4,2.4,0,0,0,3.137,1.487l.888-.342L25.4,18.94a.459.459,0,0,1-.227.464,27.109,27.109,0,0,0-6.661,5.316.458.458,0,0,1-.518.113l-4.065-1.758a2.286,2.286,0,0,0-3.754-2.6L8.242,23.03a2.33,2.33,0,0,0,.319,3.188,2.287,2.287,0,0,0,3.29-.376l.253-.333,2.907,3.414a.456.456,0,0,1,.046.523A26.855,26.855,0,0,0,11.7,39.3a.454.454,0,0,1-.347.384l-6.1,1.43a2.605,2.605,0,0,0-2.535-2.619A2.662,2.662,0,0,0,.04,41.14L0,45.6a2.582,2.582,0,0,0,2.582,2.6,2.63,2.63,0,0,0,2.63-2.6l.006-.72L11.359,46.3a.454.454,0,0,1,.347.382,26.856,26.856,0,0,0,3.121,9.357.455.455,0,0,1-.056.523l-3.843,4.343a2.568,2.568,0,0,0-3.643-.467,2.615,2.615,0,0,0-.477,3.539l1.4,2.013a2.619,2.619,0,0,0,3.564.74,2.568,2.568,0,0,0,.856-3.356l5.456-2.238a.455.455,0,0,1,.507.114A27.131,27.131,0,0,0,26.1,66.985a.455.455,0,0,1,.245.455l-.74,6.689-.1-.037a2.978,2.978,0,0,0-3.829,1.767,2.915,2.915,0,0,0,1.76,3.687l4.471,1.63a2.034,2.034,0,0,0,2.916-2.04,2.916,2.916,0,0,0-1.741-3.741l-.128-.046,3.638-5.708a.459.459,0,0,1,.477-.2,27.114,27.114,0,0,0,5.427.547c.219,0,.441,0,.659-.008a32.009,32.009,0,0,1-17.1-28.33Z" transform="translate(0 -6.647)" fill="#f37c7c"/>
        </g>
        <circle id="Ellipse_21" data-name="Ellipse 21" cx="3.026" cy="3.026" r="3.026" transform="translate(20.483 45.562)" fill="#ee6161"/>
        <g id="Group_6" data-name="Group 6" transform="translate(43.727 32.956)">
          <path id="Path_130" data-name="Path 130" d="M285.709,220.922h-1.023a1.157,1.157,0,0,1,0-2.313h1.023a1.157,1.157,0,1,1,0,2.313Z" transform="translate(-283.53 -218.609)" fill="#f9b1b1"/>
        </g>
        <g id="Group_7" data-name="Group 7" transform="translate(30.077 53.174)">
          <path id="Path_131" data-name="Path 131" d="M197.229,352.022h-1.051a1.157,1.157,0,1,1,0-2.313h1.051a1.157,1.157,0,1,1,0,2.313Z" transform="translate(-195.022 -349.709)" fill="#f9b1b1"/>
        </g>
        <g id="Group_8" data-name="Group 8" transform="translate(19.326 36.33)">
          <path id="Path_132" data-name="Path 132" d="M127.484,242.8h-1.012a1.157,1.157,0,0,1,0-2.313h1.012a1.157,1.157,0,1,1,0,2.313Z" transform="translate(-125.315 -240.487)" fill="#ee6161"/>
        </g>
        <g id="Group_9" data-name="Group 9" transform="translate(39.474 16.093)">
          <path id="Path_133" data-name="Path 133" d="M258.517,111.583h-1.408a1.157,1.157,0,1,1,0-2.313h1.408a1.157,1.157,0,0,1,0,2.313Z" transform="translate(-255.952 -109.27)" fill="#f9b1b1"/>
        </g>
        <g id="Group_10" data-name="Group 10" transform="translate(48.577 49.409)">
          <path id="Path_134" data-name="Path 134" d="M317.689,327.607h-1.555a1.157,1.157,0,0,1,0-2.313h1.555a1.157,1.157,0,0,1,0,2.313Z" transform="translate(-314.977 -325.294)" fill="#ee6161"/>
        </g>
      </g>
      <ellipse id="Ellipse_22" data-name="Ellipse 22" cx="7.966" cy="6.653" rx="7.966" ry="6.653" transform="translate(19.157 31.065) rotate(-38.257)" fill="#ee6161"/>
    </g>
    <g id="virus" transform="translate(1145.075 314.947)">
      <g id="XMLID_107_" transform="translate(0 4.053)">
        <g id="Group_1" data-name="Group 1" transform="translate(0 0)">
          <path id="Path_126" data-name="Path 126" d="M81.9,40.907a7.045,7.045,0,0,1-6.081,7.676,6.486,6.486,0,0,1-6.5-3.821L66,45.054l-2.506,1.209a1.892,1.892,0,0,0-1.047,1.452A22.1,22.1,0,0,1,61.184,52.6a1.883,1.883,0,0,0,.108,1.6l.893,1.6,2.482,1.665a4.463,4.463,0,1,1-2.82,4.783L59.1,60.4l-1.731-.211a1.994,1.994,0,0,0-1.62.546,22.4,22.4,0,0,1-4.9,3.544,1.97,1.97,0,0,0-1.033,1.62l-.22,3.507,1.089,4.32a5.544,5.544,0,1,1-5.37,1.38l-1.094-4.345-1.689-2.715a2.474,2.474,0,0,0-2.113-1.158H40.4a22.388,22.388,0,0,1-4.327-.423,2.47,2.47,0,0,0-2.279.715L31.56,69.532l-2.5,5.184a4.462,4.462,0,1,1-5.01-2.374l2.514-5.218.494-3.5a1.861,1.861,0,0,0-.664-1.706,22.469,22.469,0,0,1-5.055-5.794,1.856,1.856,0,0,0-1.574-.888l-3.5-.034-3.828,1.2a6.243,6.243,0,1,1-1.9-5.212l4.063-1.278L17.573,47.8a1.527,1.527,0,0,0,.632-1.375q-.074-.9-.074-1.807a22.131,22.131,0,0,1,2.025-9.27,1.522,1.522,0,0,0-.015-1.3l-.879-1.8-2.386-1.8a4.463,4.463,0,1,1,3.08-4.619l2.644,2,2.665.475a22.319,22.319,0,0,1,6.683-4.283l.626-3.8-.79-3.926a6.4,6.4,0,0,1-4.744-4.78,6.252,6.252,0,0,1,5.179-7.336A6.61,6.61,0,0,1,40,9.054a6.069,6.069,0,0,1-2.742,6.367l.746,3.7,1.831,2.922a.654.654,0,0,0,.555.306h0a22.116,22.116,0,0,1,11.471,3.192.646.646,0,0,0,.605.034l2.867-1.329,3.348-3.622a4.462,4.462,0,1,1,4.07,3.764l-3.348,3.622-1.087,2.925a.647.647,0,0,0,.085.605,22.15,22.15,0,0,1,3.1,6,1.9,1.9,0,0,0,1.28,1.229l2.722.763,3.537-.313a6.837,6.837,0,0,1,5.693-4.66A6.663,6.663,0,0,1,81.9,40.907Z" transform="translate(0 -4.053)" fill="#eb5569"/>
        </g>
      </g>
      <g id="XMLID_8_" transform="translate(23.909 28.13)">
        <g id="Group_2" data-name="Group 2">
          <circle id="Ellipse_10" data-name="Ellipse 10" cx="16.488" cy="16.488" r="16.488" fill="#f58a97"/>
        </g>
      </g>
      <path id="Path_127" data-name="Path 127" d="M146.441,162.951a16.492,16.492,0,0,1,13.975-16.3,16.488,16.488,0,1,0,0,32.6A16.492,16.492,0,0,1,146.441,162.951Z" transform="translate(-117.507 -118.333)" fill="#f07281"/>
      <g id="Group_3" data-name="Group 3" transform="translate(7.96 5.253)">
        <circle id="Ellipse_11" data-name="Ellipse 11" cx="4.695" cy="4.695" r="4.695" fill="#eb5569"/>
        <circle id="Ellipse_12" data-name="Ellipse 12" cx="3.101" cy="3.101" r="3.101" transform="translate(0.311 63.485)" fill="#eb5569"/>
        <circle id="Ellipse_13" data-name="Ellipse 13" cx="4.568" cy="4.568" r="4.568" transform="translate(55.785 67.113)" fill="#eb5569"/>
        <circle id="Ellipse_14" data-name="Ellipse 14" cx="4.259" cy="4.259" r="4.259" transform="translate(23.117 30.56)" fill="#eb5569"/>
        <circle id="Ellipse_15" data-name="Ellipse 15" cx="2.899" cy="2.899" r="2.899" transform="translate(27.896 45.148)" fill="#eb5569"/>
        <circle id="Ellipse_16" data-name="Ellipse 16" cx="2.434" cy="2.434" r="2.434" transform="translate(37.463 36.931)" fill="#eb5569"/>
      </g>
    </g>
    <g id="Layer_2" data-name="Layer 2" transform="translate(751.289 270.855)">
      <g id="Layer_1" data-name="Layer 1" transform="translate(0)">
        <path id="Path_19" data-name="Path 19" d="M117.951,658.8,113.1,674.76l-19.409.7-1.3-24Z" transform="translate(-41.516 -288.753)" fill="#f77f89" fill-rule="evenodd"/>
        <path id="Path_20" data-name="Path 20" d="M93.19,689.61v20.973l52.48,1.186s-1.492-14.988-28.328-15.233c.1-6.587.111-6.926.111-6.926Z" transform="translate(-41.871 -305.662)" fill-rule="evenodd"/>
        <path id="Path_21" data-name="Path 21" d="M50.2,669.209l.362,15.717,20.266.707,5.267-17.493Z" transform="translate(-22.816 -296.146)" fill="#f77f89" fill-rule="evenodd"/>
        <path id="Path_22" data-name="Path 22" d="M75.278,0c22.053,0,26.619,20.951,26.63,28.645,0,7.333-1.431,8.452-1.381,15.884.033,5.646,1.67,9.6,1.52,12.806-.869,16.7-23.451,21.519-29.9,21.613S37.63,73.609,37.63,60.626c0-9.059,5.762-23.545,5.607-33.606C42.891,6.124,60.363,0,75.278,0Z" transform="translate(-17.245)" fill-rule="evenodd"/>
        <path id="Path_23" data-name="Path 23" d="M50,693.28l.3,20.99,51.517,1.164s0-15.305-28.217-15.589V693.28Z" transform="translate(-22.728 -307.289)" fill-rule="evenodd"/>
        <path id="Path_24" data-name="Path 24" d="M40.92,369.62l.134,146.835,36.813-.8.557-6.8,23.74,3.2L117.23,358.947,109.1,319.74l-53.766-1.47Z" transform="translate(-18.703 -141.07)" fill="#455a64" fill-rule="evenodd"/>
        <path id="Path_25" data-name="Path 25" d="M114.126,522.56l22.076,37.1-4.192,42.559-23.779-2.784Z" transform="translate(-48.537 -231.619)" fill="#243036" fill-rule="evenodd"/>
        <path id="Path_26" data-name="Path 26" d="M80.163,245.755H119.27l5.295-57.775L117.5,143.706,104.137,130.84l-13.4-5.98-24.191,3.7Z" transform="translate(-30.063 -55.343)" fill="#455a64" fill-rule="evenodd"/>
        <path id="Path_27" data-name="Path 27" d="M63.38,549.408l.256-156.188" transform="translate(-28.658 -174.29)" fill="none" stroke="#737999" stroke-linecap="round" stroke-linejoin="round" stroke-width="1.7"/>
        <path id="Path_28" data-name="Path 28" d="M44.518,123.573c-9.142.251-36.44,10.161-40.426,20.216C1.063,151.416-1.014,220.432,6.1,223.8a7.728,7.728,0,0,0,1.425.523C7.1,226.44,3,275.429,4.041,279.5s3.775,10.244,7.733,10.022c15.316-.919,43.455-21.023,46.25-24.3.429-6.213,1.615-29.553,1.615-29.553L57.2,166.421l-13.958-38.16S53.66,123.322,44.518,123.573Z" transform="translate(-1.138 -54.768)" fill="#fff" fill-rule="evenodd"/>
        <path id="Path_29" data-name="Path 29" d="M114.71,122.8c15.717,1.954,37.9,14.142,40.76,19.693,2.405,4.666,1.186,65.069,1.186,65.069a38.747,38.747,0,0,0-4.894,29.8c3.686,16.213,4.777,38.1.913,42.191-6.369-3.224-14.559-16.146-16.035-19.331s-1.86-21.2-3-25.054-6.219-72.062-6.219-72.062S125.055,135.55,114.71,122.8Z" transform="translate(-51.41 -54.43)" fill="#fff" fill-rule="evenodd"/>
        <path id="Path_30" data-name="Path 30" d="M43.64,133.22c7.912,14.426,23.941,30.867,32.2,37.142" transform="translate(-19.909 -59.048)" fill="none" stroke="#c9c9c9" stroke-linecap="round" stroke-linejoin="round" stroke-width="2"/>
        <path id="Path_31" data-name="Path 31" d="M129,125.77c7.043,9.5,8.858,25.639,3.341,42.03" transform="translate(-57.743 -55.746)" fill="none" stroke="#c9c9c9" stroke-linecap="round" stroke-linejoin="round" stroke-width="2"/>
        <path id="Path_32" data-name="Path 32" d="M58,200.609a6.269,6.269,0,1,1,6.264,6.269A6.269,6.269,0,0,1,58,200.609Z" transform="translate(-26.273 -86.139)" fill="none" stroke="#353823" stroke-linecap="round" stroke-linejoin="round" stroke-width="3.41"/>
        <path id="Path_33" data-name="Path 33" d="M63.48,203.051a3.2,3.2,0,1,1,3.2,3.2A3.2,3.2,0,0,1,63.48,203.051Z" transform="translate(-28.702 -88.581)" fill="#353823" fill-rule="evenodd"/>
        <path id="Path_34" data-name="Path 34" d="M64.048,162.061c-4.231-15.539-4.5-37.164,6.419-41.061" transform="translate(-27.751 -53.632)" fill="none" stroke="#353823" stroke-linecap="round" stroke-linejoin="round" stroke-width="3.41"/>
        <path id="Path_35" data-name="Path 35" d="M112,116.25c6.23,2.639,12.165,14.81,13.557,25.232" transform="translate(-50.208 -51.527)" fill="none" stroke="#353823" stroke-linecap="round" stroke-linejoin="round" stroke-width="3.41"/>
        <path id="Path_36" data-name="Path 36" d="M123.78,181.037c-1.993-9.632,1.013-18.373,6.715-19.576s11.943,5.668,13.919,15.3-1.013,18.373-6.715,19.57S125.773,190.652,123.78,181.037Z" transform="translate(-55.157 -71.505)" fill="none" stroke="#353823" stroke-linecap="round" stroke-linejoin="round" stroke-width="3.41"/>
        <path id="Path_37" data-name="Path 37" d="M52.715,169.52,50.31,216.349" transform="translate(-22.865 -75.138)" fill="none" stroke="#c9c9c9" stroke-linecap="round" stroke-linejoin="round" stroke-width="2"/>
        <path id="Path_38" data-name="Path 38" d="M42.47,172l6.252,8.719" transform="translate(-19.39 -76.237)" fill="none" stroke="#c9c9c9" stroke-linecap="round" stroke-linejoin="round" stroke-width="2"/>
        <path id="Path_39" data-name="Path 39" d="M60.861,246.94,36.82,252.691" transform="translate(-16.886 -109.453)" fill="#606060" stroke="#c9c9c9" stroke-linecap="round" stroke-linejoin="round" stroke-width="2" fill-rule="evenodd"/>
        <path id="Path_40" data-name="Path 40" d="M39,245.72l6.124,4.677" transform="translate(-17.852 -108.913)" fill="none" stroke="#c9c9c9" stroke-linecap="round" stroke-linejoin="round" stroke-width="2"/>
        <path id="Path_41" data-name="Path 41" d="M45.9,226.15c-10.111,4.07-34.129,8.936-38.667,4.905-6.069-5.4-7.795-61.077-4.749-75.848,1.776-8.6,10.745-14.131,15.422-16.358" transform="translate(-1.016 -61.544)" fill="none" stroke="#c9c9c9" stroke-linecap="round" stroke-linejoin="round" stroke-width="2"/>
        <path id="Path_42" data-name="Path 42" d="M66.118,278.14c-2.884-3.658-3.986-21.9-2.595-27.37" transform="translate(-28.456 -111.151)" fill="none" stroke="#c9c9c9" stroke-linecap="round" stroke-linejoin="round" stroke-width="2"/>
        <path id="Path_43" data-name="Path 43" d="M69.23,256a1.464,1.464,0,1,1,.431,1.037A1.47,1.47,0,0,1,69.23,256Z" transform="translate(-31.251 -112.813)" fill="#c9c9c9" fill-rule="evenodd"/>
        <path id="Path_44" data-name="Path 44" d="M50.227,337.47a26.983,26.983,0,0,1-17.532.752,9.231,9.231,0,0,0-.3,2.16v11.631a9.187,9.187,0,0,0,18.373,0V340.371A9.131,9.131,0,0,0,50.227,337.47Z" transform="translate(-14.927 -149.58)" fill="none" stroke="#c9c9c9" stroke-linecap="round" stroke-linejoin="round" stroke-width="2"/>
        <path id="Path_45" data-name="Path 45" d="M108.229,190.52h48.009a3.829,3.829,0,0,1,3.9,5.083L141.6,263.784a7.277,7.277,0,0,1-6.681,5.083H86.938a3.831,3.831,0,0,1-3.9-5.083L101.57,195.6A7.271,7.271,0,0,1,108.229,190.52Z" transform="translate(-37.295 -84.446)" fill="#eb4559" fill-rule="evenodd"/>
        <path id="Path_46" data-name="Path 46" d="M148.513,184.215h27.248a1.8,1.8,0,0,1,1.832,2.427l-1.325,4.632a3.53,3.53,0,0,1-3.218,2.427H145.8a1.8,1.8,0,0,1-1.832-2.427l1.325-4.632A3.541,3.541,0,0,1,148.513,184.215Z" transform="translate(-64.328 -81.649)" fill="#455a64" fill-rule="evenodd"/>
        <path id="Path_47" data-name="Path 47" d="M79.365,238.814a32.615,32.615,0,0,1,6.72-2.934c3.38-2.784,5.863-13.78,6.759-14.476s3.9-.245,3.986.8c.39,3.814.184,8.268-3.2,12.249,9.832-6.252,10.578-9.025,13.284-6.932s3.68,12.3,1.359,16.525c-6.392,11.647-23.206,13.223-28.35,13.3C78.647,251.8,78.647,245.105,79.365,238.814Z" transform="translate(-35.529 -97.987)" fill="#f77f89" fill-rule="evenodd"/>
        <path id="Path_48" data-name="Path 48" d="M41.15,652.679l38.016-1.219" transform="translate(-18.805 -288.753)" fill="none" stroke="#737999" stroke-linecap="round" stroke-linejoin="round" stroke-width="1.7"/>
        <path id="Path_49" data-name="Path 49" d="M119.924,386.65,108.31,539.169" transform="translate(-48.573 -171.378)" fill="none" stroke="#737999" stroke-linecap="round" stroke-linejoin="round" stroke-width="1.7"/>
        <path id="Path_50" data-name="Path 50" d="M110,638.58l24.008,2.817" transform="translate(-49.322 -283.044)" fill="none" stroke="#737999" stroke-linecap="round" stroke-linejoin="round" stroke-width="1.7"/>
        <path id="Path_51" data-name="Path 51" d="M155.849,511.565a9.983,9.983,0,1,1,1.9-19.487" transform="translate(-64.778 -217.918)" fill="none" stroke="#737999" stroke-linecap="round" stroke-linejoin="round" stroke-width="1.7"/>
        <path id="Path_52" data-name="Path 52" d="M109.361,522.16a11.018,11.018,0,0,1,.607-22.02,10.462,10.462,0,0,1,1.052.05" transform="translate(-44.424 -221.682)" fill="none" stroke="#737999" stroke-linecap="round" stroke-linejoin="round" stroke-width="1.7"/>
        <path id="Path_53" data-name="Path 53" d="M125.5,238.09l-8.6,6.887" transform="translate(-52.38 -105.531)" fill="none" stroke="#a7464f" stroke-linecap="round" stroke-linejoin="round" stroke-width="3.41"/>
        <path id="Path_54" data-name="Path 54" d="M125.3,250.89l-10.924,8.685" transform="translate(-51.263 -111.204)" fill="none" stroke="#a7464f" stroke-linecap="round" stroke-linejoin="round" stroke-width="3.41"/>
        <path id="Path_55" data-name="Path 55" d="M216.362,236.843a32.1,32.1,0,0,1,2.594-12.249c.746-1.759.791-4.655-1.832-4.655-2.984,0-6.976,5.991-5.011,13.123S216.556,240.084,216.362,236.843Z" transform="translate(-94.351 -97.486)" fill="#f77f89" fill-rule="evenodd"/>
        <path id="Path_56" data-name="Path 56" d="M201.273,226.09c2.372,0,9.582,14.264,9.532,16s-.8,4.365-1.921,4.231-10.484-12.054-10.484-16.1C198.4,227.872,199.541,226.09,201.273,226.09Z" transform="translate(-88.504 -100.212)" fill="#f77f89" fill-rule="evenodd"/>
        <path id="Path_57" data-name="Path 57" d="M195.9,240.81c2.956,0,10.751,11.369,10.807,12.672s-1.52,2.5-2.823,2.556S193.27,248.454,193.27,244.9C193.253,242.731,194.233,240.81,195.9,240.81Z" transform="translate(-86.23 -106.736)" fill="#f77f89" fill-rule="evenodd"/>
        <path id="Path_58" data-name="Path 58" d="M200.8,271.667c1.281-.061,4.844-3.246,4.844-5.751,0-.985-2.489-3.535-3.736-3.457s-3.792,4.872-3.741,6.091S199.127,271.729,200.8,271.667Z" transform="translate(-88.402 -116.331)" fill="#f77f89" fill-rule="evenodd"/>
        <path id="Path_59" data-name="Path 59" d="M211.6,235.56c2.556,4.254,5.083,9.7,5.055,10.723" transform="translate(-94.355 -104.409)" fill="none" stroke="#a7464f" stroke-linecap="round" stroke-linejoin="round" stroke-width="3.41"/>
        <path id="Path_60" data-name="Path 60" d="M201.21,242.31c3.519,2.65,8.958,10.751,9,11.837" transform="translate(-89.75 -107.401)" fill="none" stroke="#a94b53" stroke-linecap="round" stroke-linejoin="round" stroke-width="3.41"/>
        <path id="Path_61" data-name="Path 61" d="M63.06,40.1A22.785,22.785,0,1,1,85.854,63.178,22.95,22.95,0,0,1,63.06,40.1Z" transform="translate(-28.516 -7.535)" fill="#f77f89" fill-rule="evenodd"/>
        <path id="Path_62" data-name="Path 62" d="M97.891,59.55c.245-1.47,1.114-2.556,1.982-2.411s1.347,1.448,1.114,2.917S99.873,62.613,99,62.473,97.652,61.026,97.891,59.55Z" transform="translate(-43.928 -25.321)" fill="#b5545c" fill-rule="evenodd"/>
        <path id="Path_63" data-name="Path 63" d="M128.7,61.655c.228-1.375,1.052-2.389,1.848-2.255s1.258,1.353,1.036,2.728-1.058,2.383-1.854,2.227S128.475,63.031,128.7,61.655Z" transform="translate(-57.586 -26.323)" fill="#b5545c" fill-rule="evenodd"/>
        <path id="Path_64" data-name="Path 64" d="M69.273,76.151c1.353,3.764,4.755,23.323,3.9,30.427,3.563,5.4,19.442,3.9,24.175-.674a31.154,31.154,0,0,1-1.581-16.836C96.582,83.879,67.92,72.4,69.273,76.151Z" transform="translate(-31.25 -33.425)" fill="#f77f89" fill-rule="evenodd"/>
        <path id="Path_65" data-name="Path 65" d="M93.432,13.769c.195,5.484-4.81,10.723-18.418,13.323,1.492,3.847,1.615,9.632-5.818,10.673-8.669,1.2-9.376-9.871-9.376-9.871L72.8,12.555S93.242,8.274,93.432,13.769Z" transform="translate(-27.08 -4.861)" fill-rule="evenodd"/>
        <path id="Path_66" data-name="Path 66" d="M112.82,8.506c-.557,4.872,5.05,16.7,18.033,17.026C140.085,25.532,113.36,3.629,112.82,8.506Z" transform="translate(-50.555 -3.456)" fill-rule="evenodd"/>
        <path id="Path_67" data-name="Path 67" d="M85.472,85.3c-1.247-1.576.557-8.758,2.522-12.048,2.372-1.4,10.784-.234,15.122-3.964,1.275-1.114,1.96-.29,2.951.93,1.743,2.138,6.982,3.246,8.942,4.454.29,3.118-2.572,10.256-3.808,11.853C109.263,89.063,91.552,89.291,85.472,85.3Z" transform="translate(-38.268 -30.48)" fill="#fff" fill-rule="evenodd"/>
        <path id="Path_68" data-name="Path 68" d="M86.216,67.925C85.069,66.01,80.058,57.441,78.46,55.27" transform="translate(-35.342 -24.498)" fill="none" stroke="#fff" stroke-linecap="round" stroke-linejoin="round" stroke-width="3.41"/>
        <path id="Path_69" data-name="Path 69" d="M77.721,86.374c-3.391,0-11.453-10.606-12.371-14.164" transform="translate(-29.531 -32.006)" fill="none" stroke="#fff" stroke-linecap="round" stroke-linejoin="round" stroke-width="3.41"/>
        <path id="Path_70" data-name="Path 70" d="M56.06,55.982A7.422,7.422,0,1,1,63.482,63.4a7.422,7.422,0,0,1-7.422-7.422Z" transform="translate(-25.414 -21.524)" fill="#f77f89" fill-rule="evenodd"/>
        <path id="Path_71" data-name="Path 71" d="M100.461,723.885,50.43,723.54" transform="translate(-22.918 -320.701)" fill="none" stroke="#7c7c7c" stroke-linecap="round" stroke-linejoin="round" stroke-width="1.7"/>
        <path id="Path_72" data-name="Path 72" d="M120.128,716.483c-1.375-4.348-6.754-12.867-27.738-13.073V701.3" transform="translate(-41.516 -310.844)" fill="none" stroke="#7c7c7c" stroke-linecap="round" stroke-linejoin="round" stroke-width="1.7"/>
        <path id="Path_73" data-name="Path 73" d="M50.43,713.18a9.465,9.465,0,0,1,9.465,9.465v.74" transform="translate(-22.918 -316.109)" fill="none" stroke="#7c7c7c" stroke-linecap="round" stroke-linejoin="round" stroke-width="1.7"/>
        <path id="Path_74" data-name="Path 74" d="M102.35,710.334l2.455-4.254" transform="translate(-45.931 -312.962)" fill="none" stroke="#7c7c7c" stroke-linecap="round" stroke-linejoin="round" stroke-width="1.7"/>
        <path id="Path_75" data-name="Path 75" d="M112.73,712.2l2.093-4.176" transform="translate(-50.532 -313.822)" fill="none" stroke="#7c7c7c" stroke-linecap="round" stroke-linejoin="round" stroke-width="1.7"/>
        <path id="Path_76" data-name="Path 76" d="M122.55,714.8l1.821-3.38" transform="translate(-54.885 -315.329)" fill="none" stroke="#7c7c7c" stroke-linecap="round" stroke-linejoin="round" stroke-width="1.7"/>
        <path id="Path_77" data-name="Path 77" d="M104.69,350.993l26-.813" transform="translate(-46.968 -155.213)" fill="none" stroke="#737999" stroke-linecap="round" stroke-linejoin="round" stroke-width="1.7"/>
        <path id="Path_78" data-name="Path 78" d="M50.07,697.824l23.562-.384" transform="translate(-22.759 -309.133)" fill="none" stroke="#7c7c7c" stroke-linecap="round" stroke-linejoin="round" stroke-width="1.7"/>
        <path id="Path_79" data-name="Path 79" d="M93.19,693.845l24.23-.195" transform="translate(-41.871 -307.453)" fill="none" stroke="#7c7c7c" stroke-linecap="round" stroke-linejoin="round" stroke-width="1.7"/>
        <path id="Path_80" data-name="Path 80" d="M164.615,722.377l-25.845-.557" transform="translate(-62.074 -319.939)" fill="none" stroke="#7c7c7c" stroke-linecap="round" stroke-linejoin="round" stroke-width="1.7"/>
        <path id="Path_81" data-name="Path 81" d="M148.9,703.06l-2.227,3.959" transform="translate(-65.576 -311.624)" fill="none" stroke="#7c7c7c" stroke-linecap="round" stroke-linejoin="round" stroke-width="1.7"/>
        <path id="Path_82" data-name="Path 82" d="M155.567,704.65l-2.227,3.964" transform="translate(-68.532 -312.328)" fill="none" stroke="#7c7c7c" stroke-linecap="round" stroke-linejoin="round" stroke-width="1.7"/>
        <path id="Path_83" data-name="Path 83" d="M162.687,706.61l-2.227,3.964" transform="translate(-71.688 -313.197)" fill="none" stroke="#7c7c7c" stroke-linecap="round" stroke-linejoin="round" stroke-width="1.7"/>
        <path id="Path_84" data-name="Path 84" d="M20.81,374.938c-8.351,3.5-14.621-2.734-14.671-8.908s2.394-43.015,2.728-46.69" transform="translate(-3.287 -141.544)" fill="none" stroke="#c9c9c9" stroke-linecap="round" stroke-linejoin="round" stroke-width="2"/>
        <path id="Path_85" data-name="Path 85" d="M175.251,157.405c.434-12.605-12.839-18.373-18.3-20.845" transform="translate(-70.132 -60.529)" fill="none" stroke="#c9c9c9" stroke-linecap="round" stroke-linejoin="round" stroke-width="2"/>
        <path id="Path_86" data-name="Path 86" d="M184.646,374.651c1.041-6.72,1.114-24.9-.646-31.841" transform="translate(-82.122 -151.947)" fill="none" stroke="#c9c9c9" stroke-linecap="round" stroke-linejoin="round" stroke-width="2"/>
      </g>
    </g>
    <g id="Layer_2-2" data-name="Layer 2" transform="translate(926.181 270.597)">
      <g id="Layer_1-2" data-name="Layer 1" transform="translate(0)">
        <path id="Path_87" data-name="Path 87" d="M80.365,647,77.16,663.3l18.308,8.548,7.7-16.883Z" transform="translate(-34.222 -286.961)" fill-rule="evenodd"/>
        <path id="Path_88" data-name="Path 88" d="M53.616,699.2l9.46-21.847s-10.7-4.9-19.349-8.458c-13.55,2.02-34.056.857-40.845-.557C1.029,672.936,0,676.069,0,676.069Z" transform="translate(0 -296.426)" fill-rule="evenodd"/>
        <path id="Path_89" data-name="Path 89" d="M321.84,639.687l7.88,7.29,17.028-12.52-6.01-7.946Z" transform="translate(-142.744 -277.873)" fill-rule="evenodd"/>
        <path id="Path_90" data-name="Path 90" d="M326.626,637.19l14.318,18.775-30.723,24.112H279.86l.067-7.969s21.524-3.9,21.458-3.834c4.452-5.3,8.069-18.1,8.069-18.1Z" transform="translate(-124.125 -282.61)" fill-rule="evenodd"/>
        <path id="Path_91" data-name="Path 91" d="M182.73,338.14s9.983,73.722,13.522,81.663,37.8,79.314,37.8,79.314L209.29,516.874s-55.119-83.1-57.617-87.55c-1.614-2.849-5.915-19.816-5.915-19.816L103.31,525.093,75.18,512.239l29.532-171.127Z" transform="translate(-33.344 -149.974)" fill="#455a64" fill-rule="evenodd"/>
        <path id="Path_92" data-name="Path 92" d="M197.1,340.2l-22.1.84.161,5.331Zm-21.547,20.194,2.532,82.536,11.936-32.415Z" transform="translate(-77.617 -150.887)" fill="#243036" fill-rule="evenodd"/>
        <path id="Path_93" data-name="Path 93" d="M188.837,420.5,172.26,362.72" transform="translate(-76.402 -160.876)" fill="none" stroke="#737999" stroke-linecap="round" stroke-linejoin="round" stroke-width="1.7"/>
        <path id="Path_94" data-name="Path 94" d="M289.343,539.8l-23.071-42.681c4.507-4.558,6.394-9.427-3.94-3.651-7.663,4.279-8.943,2.827-2.226-4.58,9.043-9.95,7.468-11.313-1.425-9.877" transform="translate(-113.43 -212.239)" fill="none" stroke="#737999" stroke-linecap="round" stroke-linejoin="round" stroke-width="1.7"/>
        <path id="Path_95" data-name="Path 95" d="M256.722,426.337s-7.434-52.131-9.582-58.547" transform="translate(-109.613 -163.124)" fill="none" stroke="#737999" stroke-linecap="round" stroke-linejoin="round" stroke-width="1.7"/>
        <path id="Path_96" data-name="Path 96" d="M126.26,502.942c.818-3.5,5.248-34.668,8-35.436,13.088-3.639,15.453-8.731,2.949-12.3-12.242-3.5-12.2-4.552-1.158-7.913,11.3-3.445,9.071-5.27,1.809-11.753-2.46-2.2,8.826-29.666,9.46-32.342" transform="translate(-56 -178.83)" fill="none" stroke="#737999" stroke-linecap="round" stroke-linejoin="round" stroke-width="1.7"/>
        <path id="Path_97" data-name="Path 97" d="M290.665,227.4c-.072-4.29.851-11.936-1.063-16.533s-14.552-2.615-14.552-2.615S290.731,231.668,290.665,227.4Z" transform="translate(-121.992 -92.177)" fill="#f77f89" fill-rule="evenodd"/>
        <path id="Path_98" data-name="Path 98" d="M166.869,110.15c28.725,0,52.164,14.552,52.392,36.6a110.337,110.337,0,0,0,2.688,23.795l-25.47,6.333s8.848,60.75,5.743,63.3c-9.237,7.613-74.044,10.161-82.085,1.875-.707-10.25,5.526-37.562,5.526-37.562s-19.777-46.621-9.059-68.608c10.156-20.84,36.855-24.585,48.691-24.991C165.945,110.879,166.312,110.15,166.869,110.15Z" transform="translate(-50.304 -48.854)" fill="#eb4559" fill-rule="evenodd"/>
        <path id="Path_99" data-name="Path 99" d="M195.654,23.372C195.821,13.528,185.766,0,171.286,0c-11.347,0-22.938,5.4-23.233,14.179-.59-3.628-1.152-5.871-.74-7.874-2.449-.122-7.373,6.194-7.373,14.63,0,3.261,2.543,15.581,9.777,15.431S184.558,46.1,184.558,46.1s1.814,2.654,4.263,2.454,7.084-4.791,7.123-7.323-2.254-7.084-2.226-8.492S195.482,33.2,195.654,23.372Z" transform="translate(-62.067)" fill="#6a3416" fill-rule="evenodd"/>
        <path id="Path_100" data-name="Path 100" d="M173.773,161.64l-5.1,18.564" transform="translate(-74.809 -71.691)" fill="none" stroke="#000" stroke-linecap="round" stroke-linejoin="round" stroke-width="3.41"/>
        <path id="Path_101" data-name="Path 101" d="M151.92,47.541a21.536,21.536,0,1,1,21.532,21.53,21.536,21.536,0,0,1-21.532-21.53Z" transform="translate(-67.38 -11.532)" fill="#f77f89" fill-rule="evenodd"/>
        <path id="Path_102" data-name="Path 102" d="M150.06,34.033s2.894-.556,7.151-6.856A49.855,49.855,0,0,0,178.7,25.886c.095,4.491,3.389,11.842,7.924,11.029s6.394-11.742,6.394-11.742L182.33,14l-16.166.106-11.38,8.019Z" transform="translate(-66.555 -6.209)" fill="#6a3416" fill-rule="evenodd"/>
        <path id="Path_103" data-name="Path 103" d="M161.577,57.484c-.2-1.72.339-3.189,1.2-3.289s1.731,1.208,1.931,2.921-.339,3.189-1.208,3.289S161.794,59.2,161.577,57.484Z" transform="translate(-71.645 -24.035)" fill="#90415b" fill-rule="evenodd"/>
        <path id="Path_104" data-name="Path 104" d="M210.579,72.406c-.556,3.422-1.669,19.7.095,23.16-3.934,3.962-15.47,5.67-21.513,3.951a20.705,20.705,0,0,0-2.515-11.163C185.6,86.48,211.119,68.978,210.579,72.406Z" transform="translate(-82.768 -31.917)" fill="#f77f89" fill-rule="evenodd"/>
        <path id="Path_105" data-name="Path 105" d="M187.417,52.734c-.2-1.714.339-3.183,1.2-3.289s1.731,1.208,1.925,2.927-.334,3.189-1.2,3.289S187.617,54.454,187.417,52.734Z" transform="translate(-83.106 -21.928)" fill="#90415b" fill-rule="evenodd"/>
        <path id="Path_106" data-name="Path 106" d="M173.1,61.14c.173,2.026-1.452,9.683-1.8,10.868s1.508,1.625,1.508,1.625" transform="translate(-75.96 -27.117)" fill="none" stroke="#90415b" stroke-linecap="round" stroke-linejoin="round" stroke-width="1.7"/>
        <path id="Path_107" data-name="Path 107" d="M153.86,71.46c.111,2.154,5.2,13.261,8.2,14.969s25.6,1.486,30.79-9.7c-4.263-.662-7.151-4.279-10.523-12.02-7.535,1.113-16.077,0-17.451.072C163.365,64.871,159.736,69.88,153.86,71.46Z" transform="translate(-68.241 -28.701)" fill="#fff" fill-rule="evenodd"/>
        <path id="Path_108" data-name="Path 108" d="M234.93,150.4c11.82-.228,35.258-1.669,37.612,8.347s4.591,27.195,3.3,29.549-25.359,5.337-25.359,5.337C248.58,188.813,238.074,161.64,234.93,150.4Z" transform="translate(-104.197 -66.617)" fill="#eb4559" fill-rule="evenodd"/>
        <path id="Path_109" data-name="Path 109" d="M225.81,227.821c-6.511,1.057-44.935-25.715-49.7-25.192s-16.989.056-16.989.056-6.956-26.661,7.885-27.646c.918-.061,6.355,4.775,6.355,4.775a3,3,0,0,1,2.56.384c1.92,1.569,8.163,8.664,11.285,9.788,5.253,1.9,47.885,9.961,49.927,13.355S241.43,225.289,225.81,227.821Z" transform="translate(-69.853 -77.634)" fill="#f77f89" fill-rule="evenodd"/>
        <path id="Path_110" data-name="Path 110" d="M93.452,196h29.8a10.342,10.342,0,0,1,8.731,5.7l20.974,47.64c1.386,3.144-.278,5.693-3.717,5.693H119.445a10.356,10.356,0,0,1-8.737-5.693L89.741,201.693C88.355,198.543,90.019,196,93.452,196Z" transform="translate(-39.586 -86.931)" fill="#455a64" fill-rule="evenodd"/>
        <path id="Path_111" data-name="Path 111" d="M94.251,245.351c-1.419-3.662-2.432-8.72-.44-11.959s9.66-13.211,12.838-13.394,11.335,8.659,12.209,11.525.556,9.093-.812,11.775-6.861,7.891-9.627,8S95.092,247.588,94.251,245.351Z" transform="translate(-41.114 -97.573)" fill="#f77f89" fill-rule="evenodd"/>
        <path id="Path_112" data-name="Path 112" d="M89.906,234.394c-.384-5.91-2.96-12.309-4.708-16.65-1.169-2.888-.306-5.364,1.669-5.926s8.1,7.518,8.28,13.767S90.3,240.287,89.906,234.394Z" transform="translate(-37.553 -93.934)" fill="#f77f89" fill-rule="evenodd"/>
        <path id="Path_113" data-name="Path 113" d="M93.42,240.165a33.45,33.45,0,0,1,5.6-8.575" transform="translate(-41.434 -102.716)" fill="none" stroke="#81666f" stroke-linecap="round" stroke-linejoin="round" stroke-width="1.7"/>
        <path id="Path_114" data-name="Path 114" d="M107.62,237.9c0-3.177,6.477-12.443,8.9-13.578" transform="translate(-47.732 -99.492)" fill="none" stroke="#905f6f" stroke-linecap="round" stroke-linejoin="round" stroke-width="1.7"/>
        <path id="Path_115" data-name="Path 115" d="M119.05,246.188c.072-1.541,5.114-9.939,8-11.608" transform="translate(-52.802 -104.042)" fill="none" stroke="#8b5d6c" stroke-linecap="round" stroke-linejoin="round" stroke-width="1.7"/>
        <path id="Path_116" data-name="Path 116" d="M139.865,166.86a46.687,46.687,0,0,0,.267,16.2" transform="translate(-61.775 -74.007)" fill="none" stroke="#aadaf1" stroke-linecap="round" stroke-linejoin="round" stroke-width="1.7"/>
        <path id="Path_117" data-name="Path 117" d="M207.69,191.2l18.781.378" transform="translate(-92.116 -84.802)" fill="none" stroke="#aadaf1" stroke-linecap="round" stroke-linejoin="round" stroke-width="1.7"/>
        <path id="Path_118" data-name="Path 118" d="M188.153,112.581c-.273,2.749-3.534,20.523,7.44,20.523,7.062,0,18.024-16.427,16.288-21.324" transform="translate(-83.158 -49.577)" fill="#f77f89" stroke="#aadaf1" stroke-linecap="round" stroke-linejoin="round" stroke-width="1.7" fill-rule="evenodd"/>
        <path id="Path_119" data-name="Path 119" d="M210.89,53.808a8.2,8.2,0,1,1,8.2,8.2,8.2,8.2,0,0,1-8.2-8.2Z" transform="translate(-93.535 -20.225)" fill="#f77f89" fill-rule="evenodd"/>
        <path id="Path_120" data-name="Path 120" d="M205.16,56.427s5.181-9.46,10.668-10.757" transform="translate(-90.994 -20.256)" fill="none" stroke="#fff" stroke-linecap="round" stroke-linejoin="round" stroke-width="1.7"/>
        <path id="Path_121" data-name="Path 121" d="M223.86,80.917,227.878,74" transform="translate(-99.288 -32.821)" fill="none" stroke="#fff" stroke-linecap="round" stroke-linejoin="round" stroke-width="1.7"/>
        <path id="Path_122" data-name="Path 122" d="M248.626,190c-3.144-8.241-7.657-20.339-10.506-29.009" transform="translate(-105.612 -71.403)" fill="none" stroke="#aadaf1" stroke-linecap="round" stroke-linejoin="round" stroke-width="1.7"/>
        <path id="Path_123" data-name="Path 123" d="M155,80.93c1.469,4.012,5.181,11.335,7.568,12.693.952.556,3.9.89,7.646.751" transform="translate(-68.746 -35.895)" fill="none" stroke="#c9c9c9" stroke-linecap="round" stroke-linejoin="round" stroke-width="3.41"/>
        <path id="Path_124" data-name="Path 124" d="M56.556,697.982,2.65,674.81" transform="translate(-1.175 -299.295)" fill="none" stroke="#7c7c7c" stroke-linecap="round" stroke-linejoin="round" stroke-width="1.7"/>
        <path id="Path_125" data-name="Path 125" d="M279.91,688.757l28.8-1L338.24,664.5" transform="translate(-124.147 -294.723)" fill="none" stroke="#7c7c7c" stroke-linecap="round" stroke-linejoin="round" stroke-width="1.7"/>
      </g>
    </g>
  </g>
</svg>
