<svg xmlns="http://www.w3.org/2000/svg" width="348.489" height="343.061" viewBox="0 0 348.489 343.061">
  <g id="IMG_ABOUT" data-name="IMG ABOUT" transform="translate(-176.511 -1092.929)">
    <g id="Layer_2" data-name="Layer 2" transform="translate(229.604 1093.001)">
      <g id="Layer_1" data-name="Layer 1" transform="translate(0 0.999)">
        <path id="Path_135" data-name="Path 135" d="M340.969,187.78H312.347a1.007,1.007,0,0,0-1.007,1.007v14.1a1.007,1.007,0,0,0,1.007,1.007h28.622a1.007,1.007,0,0,0,1.007-1.007v-14.1A1.007,1.007,0,0,0,340.969,187.78Z" transform="translate(-154.589 -93.741)" fill="none" stroke="#aadaf1" stroke-linecap="round" stroke-linejoin="round" stroke-width="2"/>
        <path id="Path_136" data-name="Path 136" d="M310.524,155.71H281.907a1.007,1.007,0,0,0-1.007,1.007v14.1a1.007,1.007,0,0,0,1.007,1.007h28.617a1.007,1.007,0,0,0,1.007-1.007v-14.1A1.007,1.007,0,0,0,310.524,155.71Z" transform="translate(-139.475 -77.818)" fill="none" stroke="#aadaf1" stroke-linecap="round" stroke-linejoin="round" stroke-width="2"/>
        <path id="Path_137" data-name="Path 137" d="M280.074,187.78H251.457a1.007,1.007,0,0,0-1.007,1.007v14.1a1.007,1.007,0,0,0,1.007,1.007h28.617a1.007,1.007,0,0,0,1.007-1.007v-14.1A1.007,1.007,0,0,0,280.074,187.78Z" transform="translate(-124.356 -93.741)" fill="none" stroke="#aadaf1" stroke-linecap="round" stroke-linejoin="round" stroke-width="2"/>
        <path id="Path_138" data-name="Path 138" d="M370.454,219.84H341.837a1.007,1.007,0,0,0-1.007,1.007v14.1a1.007,1.007,0,0,0,1.007,1.007h28.617a1.007,1.007,0,0,0,1.007-1.007v-14.1A1.007,1.007,0,0,0,370.454,219.84Z" transform="translate(-169.232 -109.66)" fill="none" stroke="#aadaf1" stroke-linecap="round" stroke-linejoin="round" stroke-width="2"/>
        <path id="Path_139" data-name="Path 139" d="M303,563.85h96.979a2.417,2.417,0,0,1,2.417,2.417h0a2.417,2.417,0,0,1-2.417,2.412H303a2.417,2.417,0,0,1-2.417-2.412h0A2.417,2.417,0,0,1,303,563.85Z" transform="translate(-149.247 -280.471)" fill="#fff" fill-rule="evenodd"/>
        <path id="Path_140" data-name="Path 140" d="M2.412,592.73H99.405a2.407,2.407,0,0,1,2.412,2.412h0a2.406,2.406,0,0,1-2.412,2.411H2.412A2.412,2.412,0,0,1,0,595.142H0a2.412,2.412,0,0,1,2.412-2.412Z" transform="translate(0 -294.811)" fill="#fff" fill-rule="evenodd"/>
        <path id="Path_141" data-name="Path 141" d="M296.644,567.59a41.415,41.415,0,0,0-38.012,25.017,14.767,14.767,0,0,0-18.422-.1,25.2,25.2,0,0,0-45.156-2.689A19.132,19.132,0,0,0,167,599.6c.443,0,.861-.126,1.309-.126H359.985a15.512,15.512,0,0,0-25.531-7.285A41.386,41.386,0,0,0,296.644,567.59Z" transform="translate(-82.92 -282.328)" fill="#dedede" fill-rule="evenodd"/>
        <path id="Path_142" data-name="Path 142" d="M143.992,621.33H363.283a2.417,2.417,0,0,1,2.412,2.417h0a2.417,2.417,0,0,1-2.412,2.412H143.992a2.417,2.417,0,0,1-2.412-2.412h0a2.416,2.416,0,0,1,2.412-2.417Z" transform="translate(-70.299 -309.012)" fill="#dedede" fill-rule="evenodd"/>
        <path id="Path_143" data-name="Path 143" d="M69.379,566.4,63,575.337l13.141,16.468,6.042-10.573Z" transform="translate(-31.281 -281.737)" fill="#f77f89" fill-rule="evenodd"/>
        <path id="Path_144" data-name="Path 144" d="M46.934,576.08l-15.1,17.45,23.729,27.691s15.749-.171,20.723-.171c-.1-6.042-4.491-18.558-16.715-18.075,2.467-4.33,4.219-7.9,4.219-7.9Z" transform="translate(-15.805 -286.544)" fill-rule="evenodd"/>
        <path id="Path_145" data-name="Path 145" d="M57.972,628.825c-6.832-2.11-9.939.639-14.732,5.724-3.348,3.555-10.326,3.253-14.6,1.213" transform="translate(-14.221 -312.378)" fill="none" stroke="#7c7c7c" stroke-linecap="round" stroke-linejoin="round" stroke-width="2"/>
        <path id="Path_146" data-name="Path 146" d="M55.8,651.723a46.179,46.179,0,0,0,6.953,2.351c6.253-5.538,9.954-18.684,8.781-24.544" transform="translate(-27.706 -313.083)" fill="none" stroke="#7c7c7c" stroke-linecap="round" stroke-linejoin="round" stroke-width="2"/>
        <path id="Path_147" data-name="Path 147" d="M46.9,589.72a10.215,10.215,0,0,1-2.85,17.808" transform="translate(-21.872 -293.317)" fill="none" stroke="#7c7c7c" stroke-linecap="round" stroke-linejoin="round" stroke-width="2"/>
        <path id="Path_148" data-name="Path 148" d="M37.06,604.67l23.356,25.506,17.3-1.007" transform="translate(-18.401 -300.74)" fill="none" stroke="#7c7c7c" stroke-linecap="round" stroke-linejoin="round" stroke-width="2"/>
        <path id="Path_149" data-name="Path 149" d="M111.075,414.06,71.14,487.249l15.29,17.9,72.162-74.463L142.754,408.3Z" transform="translate(-35.323 -203.236)" fill="#f7d167" fill-rule="evenodd"/>
        <path id="Path_150" data-name="Path 150" d="M100.433,563.992,82.62,544.06" transform="translate(-41.023 -270.645)" fill="none" stroke="#ff3274" stroke-linecap="round" stroke-linejoin="round" stroke-width="2"/>
        <path id="Path_151" data-name="Path 151" d="M166.249,408.31l-31.668,5.76L118.47,443.618l27.656-.66,9.017,15.542,26.951-27.8Z" transform="translate(-58.824 -203.241)" fill="#bf9111" fill-rule="evenodd"/>
        <path id="Path_152" data-name="Path 152" d="M84.56,504.3c16.363-19.167,66.458-77.585,66.458-77.585" transform="translate(-41.987 -212.382)" fill="none" stroke="#ff3274" stroke-linecap="round" stroke-linejoin="round" stroke-width="2"/>
        <path id="Path_153" data-name="Path 153" d="M300.58,608.211l4.823,10.069,21.619-3.912-3.575-12.128Z" transform="translate(-149.247 -299.533)" fill="#f77f89" fill-rule="evenodd"/>
        <path id="Path_154" data-name="Path 154" d="M303.79,627.591l7.386,21.146s42.729-8.559,45.977-9.4c-6.042-14.2-18.437-11.817-23.875-10.457a78.132,78.132,0,0,1-3.645-7.97Z" transform="translate(-150.841 -308.803)" fill-rule="evenodd"/>
        <path id="Path_155" data-name="Path 155" d="M361.248,622.814c.876-2.85,2.91-4.748,4.531-4.244s2.245,3.212,1.369,6.042-2.91,4.743-4.531,4.244S360.372,625.659,361.248,622.814Z" transform="translate(-179.173 -307.601)" fill="none" stroke="#7c7c7c" stroke-linecap="round" stroke-linejoin="round" stroke-width="2"/>
        <path id="Path_156" data-name="Path 156" d="M373.436,624.038c2.266-2.321,5.085-3.051,6.3-1.626s.362,4.461-1.9,6.782-5.085,3.056-6.3,1.631S371.17,626.374,373.436,624.038Z" transform="translate(-184.201 -309.187)" fill="none" stroke="#7c7c7c" stroke-linecap="round" stroke-linejoin="round" stroke-width="2"/>
        <path id="Path_157" data-name="Path 157" d="M329.985,296.288c2.678,2.165,5.458,4.743,9.027,6.092,5.337,1.294,15.1,12,15.1,14.3a3.139,3.139,0,0,1-3.162,3.021c-1.047.065-3.278-2.356-3.841-3.046.972,2.215,1.536,5.216.458,6.157s-2.628,1.269-3.685.05c-1.737-2.014-1.309-4.3-1.47-5.639-.856-1.636-3.187-5.276-4.174-5.719a1.827,1.827,0,0,0-1.923,1.379c-.2,1.1,2.366,3.565,2.653,4.592,0,1.3-1.425,2.96-2.653,2.633-1.4-.373-5.729-4.577-6.686-5.724-1.289-1.546-1.873-4.914-2.563-6.042a35.147,35.147,0,0,0-3.867-4.028C322.7,303.815,327.311,294.118,329.985,296.288Z" transform="translate(-160.461 -147.462)" fill="#f77f89" fill-rule="evenodd"/>
        <path id="Path_158" data-name="Path 158" d="M278.771,191.38c9.621,8.171,24.021,40.353,33.274,48.273-.967,4.969-16.3,23.477-27.132,19.066C271.34,253.191,271.506,185.213,278.771,191.38Z" transform="translate(-135.982 -95.333)" fill="#3b4161" fill-rule="evenodd"/>
        <path id="Path_159" data-name="Path 159" d="M258.415,277.438,286.941,439.42l-29.886,7.049L217.81,343.488l9.747-71.568Z" transform="translate(-108.149 -135.519)" fill="#f7d167" fill-rule="evenodd"/>
        <path id="Path_160" data-name="Path 160" d="M234.592,458.094,220.56,421.27" transform="translate(-109.515 -209.676)" fill="none" stroke="#ff3274" stroke-linecap="round" stroke-linejoin="round" stroke-width="2"/>
        <path id="Path_161" data-name="Path 161" d="M276.1,469.549,230,324.57" transform="translate(-114.202 -161.662)" fill="none" stroke="#ff3274" stroke-linecap="round" stroke-linejoin="round" stroke-width="2"/>
        <path id="Path_162" data-name="Path 162" d="M271.285,311.42c-4.028,1.687-24.67,5.5-32.645,4.662" transform="translate(-118.492 -155.132)" fill="none" stroke="#ff3274" stroke-linecap="round" stroke-linejoin="round" stroke-width="2"/>
        <path id="Path_163" data-name="Path 163" d="M116.44,234.612l54.128,5.745a6.055,6.055,0,0,1,5.186,6.8l-8.791,82.8a6.024,6.024,0,0,1-6.495,5.538l-54.128-5.724a6.055,6.055,0,0,1-5.186-6.8l8.786-82.8A6.066,6.066,0,0,1,116.44,234.612Z" transform="translate(-50.209 -116.981)" fill="#eb4559" fill-rule="evenodd"/>
        <path id="Path_164" data-name="Path 164" d="M135.08,314.482a20.642,20.642,0,1,1,20.642,20.642A20.642,20.642,0,0,1,135.08,314.482Z" transform="translate(-67.071 -146.403)" fill="none" stroke="#eb4559" stroke-linecap="round" stroke-linejoin="round" stroke-width="2"/>
        <path id="Path_165" data-name="Path 165" d="M173.44,41.719c0-5.14,2.895-9.309,6.47-9.309s6.475,4.169,6.475,9.309-2.9,9.309-6.475,9.309S173.44,46.86,173.44,41.719Z" transform="translate(-86.118 -16.596)" fill="#f77f89" fill-rule="evenodd"/>
        <path id="Path_166" data-name="Path 166" d="M180.68,40.208a20.678,20.678,0,1,1,20.676,20.678A20.678,20.678,0,0,1,180.68,40.208Z" transform="translate(-89.713 -10.2)" fill="#f77f89" fill-rule="evenodd"/>
        <path id="Path_167" data-name="Path 167" d="M162.923,319.759c-.962,3.207-4.078,9.878-1.113,21.815-5.619,8.685-3,14.8,9.873,16.338,2.165-2.643,4.335-4.375,6.752-8.191.785-3.434.715-8.7.785-10.135.136-2.89-4.1-14.324-3.046-19.459S163.885,316.546,162.923,319.759Z" transform="translate(-78.954 -157.802)" fill="#f77f89" fill-rule="evenodd"/>
        <path id="Path_168" data-name="Path 168" d="M179.91,115.45c-29.745,0-41.068,62.506-37.821,102.5,6.168,3.892,30.782,5.407,37.821,3.56,1.51-7.023,2.014-36.416,2.351-41.2,16.428,1.611,13.594,4.154,11.61,26.14,8.559.3,20.088-2.014,28.7-5.629C223.778,185.75,214.917,115.45,179.91,115.45Z" transform="translate(-70.285 -57.827)" fill="#3b4161" fill-rule="evenodd"/>
        <path id="Path_169" data-name="Path 169" d="M135.08,185.405l3.927-37.584a22.289,22.289,0,0,1,24.484-19.852l4.214.438a22.289,22.289,0,0,1,19.852,24.484l-4.028,38.641" transform="translate(-67.071 -63.983)" fill="none" stroke="#eb4559" stroke-linecap="round" stroke-linejoin="round" stroke-width="6.77"/>
        <path id="Path_170" data-name="Path 170" d="M193.485,82.253a83.507,83.507,0,0,1,1.682,19.726c3.942,2.326,14.163,3.942,19.077-2.653-2.326-5.624-2.845-8.343-2.648-11.58S191.934,75.592,193.485,82.253Z" transform="translate(-96.028 -40.148)" fill="#f77f89" fill-rule="evenodd"/>
        <path id="Path_171" data-name="Path 171" d="M206.611,73.969c-.438-3.575,2.135-11.988,3.6-13.156,13.82.5,22.4-9.339,23.794-12.033a16.292,16.292,0,0,1,2.764,5.74c.357,1.369.045,2.331-2.3,4.295C233.884,66.885,226.559,79.7,206.611,73.969Z" transform="translate(-102.564 -24.724)" fill="#fff" fill-rule="evenodd"/>
        <path id="Path_172" data-name="Path 172" d="M199.982,63.714s-12.587-10.3-16.242-10.8" transform="translate(-91.232 -26.775)" fill="none" stroke="#fff" stroke-linecap="round" stroke-linejoin="round" stroke-width="3.05"/>
        <path id="Path_173" data-name="Path 173" d="M236.39,49.737c0-1.792.584-3.247,1.3-3.247s1.3,1.455,1.3,3.247-.584,3.247-1.3,3.247S236.39,51.53,236.39,49.737Z" transform="translate(-117.375 -23.587)" fill="#cb5d66" fill-rule="evenodd"/>
        <path id="Path_174" data-name="Path 174" d="M181.032,299.982c-4.788.69-30.838-.438-39.452-3.982" transform="translate(-70.299 -147.476)" fill="none" stroke="#737999" stroke-linecap="round" stroke-linejoin="round" stroke-width="2"/>
        <path id="Path_175" data-name="Path 175" d="M213.443,190.039c-.337-9.853,8.63-41.843-9.093-55" transform="translate(-101.466 -67.554)" fill="none" stroke="#737999" stroke-linecap="round" stroke-linejoin="round" stroke-width="2"/>
        <path id="Path_176" data-name="Path 176" d="M213.448,244.17l-9.1,3.9" transform="translate(-101.466 -121.741)" fill="none" stroke="#737999" stroke-linecap="round" stroke-linejoin="round" stroke-width="2"/>
        <path id="Path_177" data-name="Path 177" d="M205.14,242.45l8.725.614" transform="translate(-101.858 -120.887)" fill="none" stroke="#737999" stroke-linecap="round" stroke-linejoin="round" stroke-width="2"/>
        <path id="Path_178" data-name="Path 178" d="M207.71,230.26l7.441,6.686" transform="translate(-103.134 -114.834)" fill="none" stroke="#737999" stroke-linecap="round" stroke-linejoin="round" stroke-width="2"/>
        <path id="Path_179" data-name="Path 179" d="M297.058,244.622c.5-6.59-.886-23.734-5.538-40.942" transform="translate(-144.748 -101.636)" fill="none" stroke="#737999" stroke-linecap="round" stroke-linejoin="round" stroke-width="2"/>
        <path id="Path_180" data-name="Path 180" d="M319.278,271.79c-4.028,7.109-13.594,14.787-17.068,16.312" transform="translate(-150.056 -135.455)" fill="none" stroke="#737999" stroke-linecap="round" stroke-linejoin="round" stroke-width="2"/>
        <path id="Path_181" data-name="Path 181" d="M278.573,304.988c-.423-2.548-1.943-12.008-1.943-12.008" transform="translate(-137.355 -145.976)" fill="none" stroke="#ff3274" stroke-linecap="round" stroke-linejoin="round" stroke-width="2"/>
        <path id="Path_182" data-name="Path 182" d="M319.37,584.6l-32.67,5.156" transform="translate(-142.355 -290.774)" fill="none" stroke="#ff3274" stroke-linecap="round" stroke-linejoin="round" stroke-width="2"/>
        <path id="Path_183" data-name="Path 183" d="M315.727,447.749a15.337,15.337,0,0,1-1.742.1,15.769,15.769,0,0,1-3.756-31.084" transform="translate(-148.071 -207.437)" fill="none" stroke="#ff3274" stroke-linecap="round" stroke-linejoin="round" stroke-width="2"/>
        <path id="Path_184" data-name="Path 184" d="M315.67,659.665,361.37,651" transform="translate(-156.739 -323.744)" fill="none" stroke="#7c7c7c" stroke-linecap="round" stroke-linejoin="round" stroke-width="2"/>
        <path id="Path_185" data-name="Path 185" d="M308.41,647.784a10.231,10.231,0,0,1,13.609,12.139" transform="translate(-153.135 -321.797)" fill="none" stroke="#7c7c7c" stroke-linecap="round" stroke-linejoin="round" stroke-width="2"/>
        <path id="Path_186" data-name="Path 186" d="M196.007,87.97c-1.581-.6-7.935-2.814-11.237-9.47" transform="translate(-91.744 -39.481)" fill="none" stroke="#fff" stroke-linecap="round" stroke-linejoin="round" stroke-width="3.05"/>
        <path id="Path_187" data-name="Path 187" d="M172.7,61.846a6.661,6.661,0,1,1,6.656,6.656A6.661,6.661,0,0,1,172.7,61.846Z" transform="translate(-85.751 -27.902)" fill="#f77f89" fill-rule="evenodd"/>
        <path id="Path_188" data-name="Path 188" d="M192.289,72.29A6.661,6.661,0,0,1,185.92,77" transform="translate(-92.315 -36.397)" fill="none" stroke="#cb5d66" stroke-linecap="round" stroke-linejoin="round" stroke-width="2"/>
        <path id="Path_189" data-name="Path 189" d="M175.49,57.907a6.646,6.646,0,0,1,3.857-2.417" transform="translate(-87.136 -28.056)" fill="none" stroke="#cb5d66" stroke-linecap="round" stroke-linejoin="round" stroke-width="2"/>
        <path id="Path_190" data-name="Path 190" d="M189.959,1.574a22.274,22.274,0,0,0-16.705,26.709l43.414-10A22.274,22.274,0,0,0,189.959,1.574Z" transform="translate(-85.74 -0.999)" fill="#f2e283" fill-rule="evenodd"/>
        <path id="Path_191" data-name="Path 191" d="M223.319,21.627,254.69,14.4c2.6-.6,5.035.408,5.478,2.245h0c.423,1.843-1.339,3.821-3.942,4.426L224.855,28.3c-2.6.6-5.035-.408-5.478-2.251h0C218.949,24.205,220.716,22.226,223.319,21.627Z" transform="translate(-108.895 -7.565)" fill="#f2e283" fill-rule="evenodd"/>
        <path id="Path_192" data-name="Path 192" d="M162.75,385.867a30.771,30.771,0,0,0,3.59-4.617" transform="translate(-80.81 -189.805)" fill="none" stroke="#cb5d66" stroke-linecap="round" stroke-linejoin="round" stroke-width="2"/>
        <path id="Path_193" data-name="Path 193" d="M173.79,387.587a55.926,55.926,0,0,0,6.792-8.947" transform="translate(-86.292 -188.509)" fill="none" stroke="#cb5d66" stroke-linecap="round" stroke-linejoin="round" stroke-width="2"/>
        <path id="Path_194" data-name="Path 194" d="M350.49,326.9c3.172-2.633,8.121,2.759,10.371,4.934" transform="translate(-174.029 -162.467)" fill="none" stroke="#cb5d66" stroke-linecap="round" stroke-linejoin="round" stroke-width="2"/>
        <path id="Path_195" data-name="Path 195" d="M184.238,68.378a2.829,2.829,0,0,1-1.153.242,2.87,2.87,0,1,1,1.47-5.332" transform="translate(-89.48 -31.725)" fill="none" stroke="#cb5d66" stroke-linecap="round" stroke-linejoin="round" stroke-width="2"/>
        <path id="Path_196" data-name="Path 196" d="M200.681,1.718A22.289,22.289,0,0,0,172.92,21.052" transform="translate(-85.86 -1.003)" fill="none" stroke="#ff3274" stroke-linecap="round" stroke-linejoin="round" stroke-width="2"/>
        <path id="Path_197" data-name="Path 197" d="M245.5,48.78a16.293,16.293,0,0,1,2.764,5.74c.357,1.369.045,2.331-2.3,4.295C245.5,65.072,241,74.18,229.7,75.288" transform="translate(-114.053 -24.724)" fill="none" stroke="#c9c9c9" stroke-linecap="round" stroke-linejoin="round" stroke-width="2"/>
      </g>
    </g>
    <g id="virus" transform="translate(176.511 1265.947)">
      <g id="XMLID_107_" transform="translate(0 4.053)">
        <g id="Group_1" data-name="Group 1" transform="translate(0 0)">
          <path id="Path_126" data-name="Path 126" d="M65.471,33.513a5.631,5.631,0,0,1-4.861,6.136,5.185,5.185,0,0,1-5.2-3.054l-2.653.234-2,.966a1.512,1.512,0,0,0-.837,1.161,17.666,17.666,0,0,1-1.01,3.9A1.505,1.505,0,0,0,49,44.139l.714,1.276,1.984,1.331A3.568,3.568,0,1,1,49.44,50.57l-2.2-1.475-1.384-.169a1.594,1.594,0,0,0-1.295.437A17.909,17.909,0,0,1,40.641,52.2a1.575,1.575,0,0,0-.826,1.295l-.176,2.8.87,3.453a4.432,4.432,0,1,1-4.292,1.1l-.874-3.473-1.35-2.171A1.977,1.977,0,0,0,32.3,54.28h-.011a17.9,17.9,0,0,1-3.459-.338,1.974,1.974,0,0,0-1.822.572L25.228,56.4l-2,4.144a3.567,3.567,0,1,1-4-1.9l2.01-4.171.395-2.8a1.487,1.487,0,0,0-.531-1.364,17.962,17.962,0,0,1-4.041-4.632,1.483,1.483,0,0,0-1.258-.71l-2.795-.027-3.06.962a4.99,4.99,0,1,1-1.518-4.167l3.248-1.022,2.372-1.691a1.221,1.221,0,0,0,.505-1.1q-.059-.716-.059-1.445a17.691,17.691,0,0,1,1.619-7.41A1.217,1.217,0,0,0,16.1,28.03l-.7-1.437L13.49,25.154a3.567,3.567,0,1,1,2.462-3.692l2.114,1.595,2.13.38a17.842,17.842,0,0,1,5.343-3.423l.5-3.038-.631-3.138a5.115,5.115,0,0,1-3.792-3.821,5,5,0,0,1,4.14-5.864,5.284,5.284,0,0,1,6.224,3.9,4.852,4.852,0,0,1-2.192,5.09l.6,2.96,1.464,2.335a.523.523,0,0,0,.443.245h0a17.679,17.679,0,0,1,9.17,2.552.516.516,0,0,0,.484.027L44.239,20.2,46.915,17.3a3.567,3.567,0,1,1,3.253,3.008l-2.676,2.895-.869,2.338a.517.517,0,0,0,.068.484,17.706,17.706,0,0,1,2.479,4.8,1.52,1.52,0,0,0,1.023.983l2.176.61,2.827-.25a5.465,5.465,0,0,1,4.551-3.725,5.326,5.326,0,0,1,5.725,5.074Z" transform="translate(0 -4.053)" fill="#eb5569"/>
        </g>
      </g>
      <g id="XMLID_8_" transform="translate(19.113 23.3)">
        <g id="Group_2" data-name="Group 2">
          <circle id="Ellipse_10" data-name="Ellipse 10" cx="13.18" cy="13.18" r="13.18" fill="#f58a97"/>
        </g>
      </g>
      <path id="Path_127" data-name="Path 127" d="M145.433,159.643A13.183,13.183,0,0,1,156.6,146.615a13.18,13.18,0,1,0,0,26.056A13.183,13.183,0,0,1,145.433,159.643Z" transform="translate(-122.303 -123.163)" fill="#f07281"/>
      <g id="Group_3" data-name="Group 3" transform="translate(6.363 5.012)">
        <circle id="Ellipse_11" data-name="Ellipse 11" cx="3.753" cy="3.753" r="3.753" fill="#eb5569"/>
        <circle id="Ellipse_12" data-name="Ellipse 12" cx="2.479" cy="2.479" r="2.479" transform="translate(0.248 50.749)" fill="#eb5569"/>
        <circle id="Ellipse_13" data-name="Ellipse 13" cx="3.652" cy="3.652" r="3.652" transform="translate(44.594 53.649)" fill="#eb5569"/>
        <circle id="Ellipse_14" data-name="Ellipse 14" cx="3.404" cy="3.404" r="3.404" transform="translate(18.48 24.429)" fill="#eb5569"/>
        <circle id="Ellipse_15" data-name="Ellipse 15" cx="2.317" cy="2.317" r="2.317" transform="translate(22.299 36.09)" fill="#eb5569"/>
        <circle id="Ellipse_16" data-name="Ellipse 16" cx="1.946" cy="1.946" r="1.946" transform="translate(29.947 29.522)" fill="#eb5569"/>
      </g>
    </g>
    <g id="virus-2" data-name="virus" transform="translate(248.511 1141.947)">
      <g id="XMLID_107_2" data-name="XMLID_107_" transform="translate(0 4.053)">
        <g id="Group_1-2" data-name="Group 1" transform="translate(0 0)">
          <path id="Path_126-2" data-name="Path 126" d="M32.085,18.49A2.76,2.76,0,0,1,29.7,21.5,2.541,2.541,0,0,1,27.155,20l-1.3.115-.982.474a.741.741,0,0,0-.41.569,8.658,8.658,0,0,1-.495,1.912.738.738,0,0,0,.042.628l.35.625.972.652a1.748,1.748,0,1,1-1.1,1.874l-1.078-.723-.678-.083a.781.781,0,0,0-.635.214,8.777,8.777,0,0,1-1.921,1.388.772.772,0,0,0-.4.635l-.086,1.374.427,1.692a2.172,2.172,0,1,1-2.1.54l-.429-1.7-.662-1.064a.969.969,0,0,0-.828-.454h-.005a8.77,8.77,0,0,1-1.695-.166.967.967,0,0,0-.893.28l-.874.923-.979,2.031a1.748,1.748,0,1,1-1.962-.93l.985-2.044.193-1.372a.729.729,0,0,0-.26-.668,8.8,8.8,0,0,1-1.98-2.27.727.727,0,0,0-.617-.348l-1.37-.013-1.5.472A2.446,2.446,0,1,1,4.13,22.52l1.592-.5,1.162-.829a.6.6,0,0,0,.248-.538Q7.1,20.3,7.1,19.944A8.67,8.67,0,0,1,7.9,16.313.6.6,0,0,0,7.89,15.8l-.344-.7-.935-.705a1.748,1.748,0,1,1,1.207-1.809l1.036.782,1.044.186a8.744,8.744,0,0,1,2.618-1.678l.245-1.489-.309-1.538a2.507,2.507,0,0,1-1.858-1.872A2.449,2.449,0,0,1,12.622,4.1a2.589,2.589,0,0,1,3.05,1.911A2.378,2.378,0,0,1,14.6,8.506l.292,1.451.717,1.145a.256.256,0,0,0,.217.12h0a8.664,8.664,0,0,1,4.494,1.25.253.253,0,0,0,.237.013l1.123-.521,1.311-1.419a1.748,1.748,0,1,1,1.594,1.474l-1.311,1.419-.426,1.146a.253.253,0,0,0,.033.237,8.677,8.677,0,0,1,1.215,2.35.745.745,0,0,0,.5.482l1.066.3,1.386-.123A2.678,2.678,0,0,1,29.279,16a2.61,2.61,0,0,1,2.806,2.486Z" transform="translate(0 -4.053)" fill="#eb5569"/>
        </g>
      </g>
      <g id="XMLID_8_2" data-name="XMLID_8_" transform="translate(9.366 13.485)">
        <g id="Group_2-2" data-name="Group 2">
          <circle id="Ellipse_10-2" data-name="Ellipse 10" cx="6.459" cy="6.459" r="6.459" fill="#f58a97"/>
        </g>
      </g>
      <path id="Path_127-2" data-name="Path 127" d="M143.385,152.922a6.46,6.46,0,0,1,5.475-6.385,6.459,6.459,0,1,0,0,12.769A6.461,6.461,0,0,1,143.385,152.922Z" transform="translate(-132.05 -132.978)" fill="#f07281"/>
      <g id="Group_3-2" data-name="Group 3" transform="translate(3.118 4.523)">
        <circle id="Ellipse_11-2" data-name="Ellipse 11" cx="1.839" cy="1.839" r="1.839" fill="#eb5569"/>
        <circle id="Ellipse_12-2" data-name="Ellipse 12" cx="1.215" cy="1.215" r="1.215" transform="translate(0.122 24.87)" fill="#eb5569"/>
        <circle id="Ellipse_13-2" data-name="Ellipse 13" cx="1.789" cy="1.789" r="1.789" transform="translate(21.854 26.291)" fill="#eb5569"/>
        <circle id="Ellipse_14-2" data-name="Ellipse 14" cx="1.668" cy="1.668" r="1.668" transform="translate(9.056 11.972)" fill="#eb5569"/>
        <circle id="Ellipse_15-2" data-name="Ellipse 15" cx="1.136" cy="1.136" r="1.136" transform="translate(10.928 17.686)" fill="#eb5569"/>
        <circle id="Ellipse_16-2" data-name="Ellipse 16" cx="0.954" cy="0.954" r="0.954" transform="translate(14.676 14.468)" fill="#eb5569"/>
      </g>
    </g>
    <g id="virus-3" data-name="virus" transform="translate(437 1239.947)">
      <g id="XMLID_107_3" data-name="XMLID_107_" transform="translate(0 4.053)">
        <g id="Group_1-3" data-name="Group 1" transform="translate(0 0)">
          <path id="Path_126-3" data-name="Path 126" d="M59.009,30.605a5.076,5.076,0,0,1-4.382,5.53,4.673,4.673,0,0,1-4.685-2.753l-2.391.211-1.805.871a1.363,1.363,0,0,0-.754,1.046,15.922,15.922,0,0,1-.91,3.517,1.357,1.357,0,0,0,.078,1.155l.643,1.15,1.788,1.2a3.216,3.216,0,1,1-2.032,3.446l-1.982-1.329L41.33,44.5a1.436,1.436,0,0,0-1.167.393,16.141,16.141,0,0,1-3.534,2.553,1.419,1.419,0,0,0-.744,1.167l-.158,2.526.784,3.112a3.994,3.994,0,1,1-3.869.994l-.788-3.131-1.217-1.956a1.782,1.782,0,0,0-1.523-.834h-.01a16.13,16.13,0,0,1-3.117-.3,1.779,1.779,0,0,0-1.642.515l-1.608,1.7-1.8,3.735a3.215,3.215,0,1,1-3.609-1.71l1.811-3.759.356-2.523a1.34,1.34,0,0,0-.479-1.229,16.189,16.189,0,0,1-3.642-4.174,1.337,1.337,0,0,0-1.134-.64L11.721,40.9l-2.758.867A4.5,4.5,0,1,1,7.6,38.016l2.927-.921,2.138-1.524a1.1,1.1,0,0,0,.456-.99q-.053-.645-.054-1.3A15.945,15.945,0,0,1,14.522,26.6a1.1,1.1,0,0,0-.011-.937l-.633-1.295-1.719-1.3a3.215,3.215,0,1,1,2.219-3.328l1.905,1.437,1.92.342a16.081,16.081,0,0,1,4.815-3.085l.451-2.738L22.9,12.871a4.61,4.61,0,0,1-3.418-3.444,4.5,4.5,0,0,1,3.731-5.285,4.762,4.762,0,0,1,5.609,3.514,4.373,4.373,0,0,1-1.976,4.587l.537,2.668,1.319,2.1a.472.472,0,0,0,.4.22h0a15.934,15.934,0,0,1,8.265,2.3.465.465,0,0,0,.436.024l2.066-.957,2.412-2.609a3.215,3.215,0,1,1,2.932,2.712L42.8,21.315l-.783,2.107a.466.466,0,0,0,.061.436,15.959,15.959,0,0,1,2.234,4.322,1.37,1.37,0,0,0,.922.886l1.961.549,2.548-.225a4.926,4.926,0,0,1,4.1-3.357,4.8,4.8,0,0,1,5.16,4.573Z" transform="translate(0 -4.053)" fill="#eb5569"/>
        </g>
      </g>
      <g id="XMLID_8_3" data-name="XMLID_8_" transform="translate(17.226 21.4)">
        <g id="Group_2-3" data-name="Group 2">
          <circle id="Ellipse_10-3" data-name="Ellipse 10" cx="11.879" cy="11.879" r="11.879" fill="#f58a97"/>
        </g>
      </g>
      <path id="Path_127-3" data-name="Path 127" d="M145.037,158.342A11.882,11.882,0,0,1,155.105,146.6a11.879,11.879,0,1,0,0,23.484A11.882,11.882,0,0,1,145.037,158.342Z" transform="translate(-124.19 -125.063)" fill="#f07281"/>
      <g id="Group_3-3" data-name="Group 3" transform="translate(5.735 4.917)">
        <circle id="Ellipse_11-3" data-name="Ellipse 11" cx="3.383" cy="3.383" r="3.383" fill="#eb5569"/>
        <circle id="Ellipse_12-3" data-name="Ellipse 12" cx="2.234" cy="2.234" r="2.234" transform="translate(0.224 45.739)" fill="#eb5569"/>
        <circle id="Ellipse_13-3" data-name="Ellipse 13" cx="3.291" cy="3.291" r="3.291" transform="translate(40.192 48.353)" fill="#eb5569"/>
        <circle id="Ellipse_14-3" data-name="Ellipse 14" cx="3.068" cy="3.068" r="3.068" transform="translate(16.655 22.017)" fill="#eb5569"/>
        <circle id="Ellipse_15-3" data-name="Ellipse 15" cx="2.088" cy="2.088" r="2.088" transform="translate(20.098 32.528)" fill="#eb5569"/>
        <circle id="Ellipse_16-3" data-name="Ellipse 16" cx="1.754" cy="1.754" r="1.754" transform="translate(26.991 26.608)" fill="#eb5569"/>
      </g>
    </g>
  </g>
</svg>
