<svg xmlns="http://www.w3.org/2000/svg" width="140" height="42.192" viewBox="0 0 140 42.192">
  <g id="LOGO" transform="translate(-139 -19)">
    <g id="coronavirus" transform="translate(139 14.079)">
      <g id="Group_11" data-name="Group 11" transform="translate(0 4.921)">
        <g id="XMLID_427_" transform="translate(0)">
          <g id="Group_4" data-name="Group 4">
            <path id="Path_128" data-name="Path 128" d="M41.956,26.276a1.35,1.35,0,0,1,1.065,1.584l-.534,2.718a1.349,1.349,0,0,1-1.647,1.05,1.374,1.374,0,0,1-.994-1.607l.015-.073-3.519.161a.254.254,0,0,0-.231.176,15.138,15.138,0,0,1-1.344,2.953.256.256,0,0,0,.023.3l1.556,1.849a1.624,1.624,0,0,1,2.408,2.165l-.451.589a1.65,1.65,0,0,1-2.235.383,1.625,1.625,0,0,1-.619-1.858l-2.242-.985a.256.256,0,0,0-.292.063,15.3,15.3,0,0,1-3.584,2.9.256.256,0,0,0-.124.263l.574,3.5.5-.2a1.35,1.35,0,0,1,1.777.813,1.373,1.373,0,0,1-.81,1.706l-2.537,1.015a1.349,1.349,0,0,1-1.777-.813,1.375,1.375,0,0,1,.81-1.707l.069-.027-2.047-2.868a.255.255,0,0,0-.273-.1,15.293,15.293,0,0,1-6.883.179.258.258,0,0,0-.268.113l-2.047,3.212.072.026a1.641,1.641,0,0,1,.98,2.106A1.144,1.144,0,0,1,15.7,47.013L13.187,46.1a1.641,1.641,0,0,1-.99-2.075,1.676,1.676,0,0,1,2.155-.995l.058.021.417-3.764a.256.256,0,0,0-.138-.256A15.269,15.269,0,0,1,10.462,35.8a.256.256,0,0,0-.286-.064L7.106,37a1.445,1.445,0,0,1-.482,1.889,1.474,1.474,0,0,1-2.006-.417l-.786-1.133A1.472,1.472,0,0,1,4.1,35.343a1.445,1.445,0,0,1,2.05.263l2.163-2.444a.256.256,0,0,0,.031-.294A15.114,15.114,0,0,1,6.588,27.6a.255.255,0,0,0-.2-.215l-3.456-.8,0,.405a1.48,1.48,0,0,1-1.48,1.466A1.453,1.453,0,0,1,0,26.993l.023-2.511a1.5,1.5,0,0,1,1.506-1.491,1.466,1.466,0,0,1,1.427,1.474l3.431-.8a.255.255,0,0,0,.2-.216A15.113,15.113,0,0,1,8.474,17.9a.257.257,0,0,0-.026-.294L6.812,15.685l-.142.187a1.287,1.287,0,0,1-1.851.212,1.311,1.311,0,0,1-.18-1.794l1.09-1.441a1.287,1.287,0,0,1,2.112,1.466l2.288.989a.258.258,0,0,0,.292-.063,15.256,15.256,0,0,1,3.748-2.992.258.258,0,0,0,.128-.261L13.77,8.482l-.5.193A1.35,1.35,0,0,1,11.5,7.838a1.374,1.374,0,0,1,.832-1.7l2.55-.981A1.349,1.349,0,0,1,16.652,6a1.374,1.374,0,0,1-.832,1.7l-.069.026,2.007,2.894a.256.256,0,0,0,.272.1,15.236,15.236,0,0,1,3.633-.437h0a.257.257,0,0,0,.244-.17l.665-1.859a1.707,1.707,0,0,1-1.185-1.829,1.745,1.745,0,0,1,1.948-1.487l.913.115a1.736,1.736,0,0,1,1.527,1.883A1.707,1.707,0,0,1,24.511,8.4l.231,2.015a.255.255,0,0,0,.2.22,15.126,15.126,0,0,1,4.327,1.681.255.255,0,0,0,.29-.023l2.754-2.235-.418-.332a1.349,1.349,0,0,1-.176-1.946A1.373,1.373,0,0,1,33.6,7.635l2.139,1.7a1.349,1.349,0,0,1,.176,1.946,1.375,1.375,0,0,1-1.883.144l-.058-.046L32.5,14.58a.255.255,0,0,0,.05.286,15.256,15.256,0,0,1,2.614,3.608.257.257,0,0,0,.263.136l2.091-.292a1.626,1.626,0,0,1,1.025-2.1,1.652,1.652,0,0,1,2.044,1.015l.482,1.291a1.655,1.655,0,0,1-.859,2.1,1.627,1.627,0,0,1-2.04-.647l-1.735,1.177a.255.255,0,0,0-.1.28,15.246,15.246,0,0,1,.548,4.06q0,.353-.016.7a.257.257,0,0,0,.153.247l3.253,1.421.1-.525a1.35,1.35,0,0,1,1.584-1.065Z" transform="translate(0 -4.921)" fill="#f79595"/>
          </g>
        </g>
        <ellipse id="Ellipse_17" data-name="Ellipse 17" cx="2.149" cy="1.796" rx="2.149" ry="1.796" transform="translate(26.122 11.288)" fill="#ee6161"/>
        <circle id="Ellipse_18" data-name="Ellipse 18" cx="2.348" cy="2.348" r="2.348" transform="translate(18.168 21.923)" fill="#ee6161"/>
        <circle id="Ellipse_19" data-name="Ellipse 19" cx="1.681" cy="1.681" r="1.681" transform="translate(27.988 21.367)" fill="#f9b1b1"/>
        <circle id="Ellipse_20" data-name="Ellipse 20" cx="1.635" cy="1.635" r="1.635" transform="translate(21.825 29.619)" fill="#f9b1b1"/>
        <g id="Group_5" data-name="Group 5" transform="translate(0 0.15)">
          <path id="Path_129" data-name="Path 129" d="M12.407,26.345A17.986,17.986,0,0,1,19.52,12a15.134,15.134,0,0,0-1.49.287.256.256,0,0,1-.272-.1L15.751,9.3l.069-.026a1.374,1.374,0,0,0,.832-1.7,1.349,1.349,0,0,0-1.765-.837l-2.55.981a1.374,1.374,0,0,0-.832,1.7,1.35,1.35,0,0,0,1.765.837l.5-.193.527,3.507a.258.258,0,0,1-.128.261,15.256,15.256,0,0,0-3.748,2.992.258.258,0,0,1-.292.063l-2.288-.989a1.287,1.287,0,0,0-2.112-1.466l-1.09,1.441a1.311,1.311,0,0,0,.18,1.794,1.287,1.287,0,0,0,1.851-.212l.142-.187,1.636,1.922a.257.257,0,0,1,.026.294,15.113,15.113,0,0,0-1.892,5.543.255.255,0,0,1-.2.216l-3.431.8a1.466,1.466,0,0,0-1.427-1.474A1.5,1.5,0,0,0,.023,26.059L0,28.569a1.453,1.453,0,0,0,1.453,1.466,1.48,1.48,0,0,0,1.48-1.466l0-.405,3.456.8a.255.255,0,0,1,.2.215,15.113,15.113,0,0,0,1.757,5.266.256.256,0,0,1-.031.294L6.15,37.182a1.445,1.445,0,0,0-2.05-.263,1.472,1.472,0,0,0-.268,1.992l.786,1.133a1.474,1.474,0,0,0,2.006.417,1.445,1.445,0,0,0,.482-1.889l3.071-1.259a.256.256,0,0,1,.286.064A15.268,15.268,0,0,0,14.689,40.6a.256.256,0,0,1,.138.256l-.417,3.764-.058-.021A1.676,1.676,0,0,0,12.2,45.6a1.641,1.641,0,0,0,.99,2.075l2.516.917a1.144,1.144,0,0,0,1.641-1.148,1.641,1.641,0,0,0-.98-2.106l-.072-.026L18.34,42.1a.258.258,0,0,1,.268-.113,15.259,15.259,0,0,0,3.054.308c.123,0,.248,0,.371,0a18.013,18.013,0,0,1-9.626-15.943Z" transform="translate(0 -6.647)" fill="#f37c7c"/>
        </g>
        <circle id="Ellipse_21" data-name="Ellipse 21" cx="1.703" cy="1.703" r="1.703" transform="translate(11.527 25.641)" fill="#ee6161"/>
        <g id="Group_6" data-name="Group 6" transform="translate(24.608 18.546)">
          <path id="Path_130" data-name="Path 130" d="M284.756,219.911h-.575a.651.651,0,0,1,0-1.3h.575a.651.651,0,1,1,0,1.3Z" transform="translate(-283.53 -218.609)" fill="#f9b1b1"/>
        </g>
        <g id="Group_7" data-name="Group 7" transform="translate(16.926 29.924)">
          <path id="Path_131" data-name="Path 131" d="M196.264,351.011h-.591a.651.651,0,1,1,0-1.3h.591a.651.651,0,1,1,0,1.3Z" transform="translate(-195.022 -349.709)" fill="#f9b1b1"/>
        </g>
        <g id="Group_8" data-name="Group 8" transform="translate(10.876 20.445)">
          <path id="Path_132" data-name="Path 132" d="M126.535,241.789h-.57a.651.651,0,0,1,0-1.3h.57a.651.651,0,1,1,0,1.3Z" transform="translate(-125.315 -240.487)" fill="#ee6161"/>
        </g>
        <g id="Group_9" data-name="Group 9" transform="translate(22.214 9.057)">
          <path id="Path_133" data-name="Path 133" d="M257.4,110.572H256.6a.651.651,0,1,1,0-1.3h.793a.651.651,0,0,1,0,1.3Z" transform="translate(-255.952 -109.27)" fill="#f9b1b1"/>
        </g>
        <g id="Group_10" data-name="Group 10" transform="translate(27.337 27.805)">
          <path id="Path_134" data-name="Path 134" d="M316.5,326.6h-.875a.651.651,0,0,1,0-1.3h.875a.651.651,0,1,1,0,1.3Z" transform="translate(-314.977 -325.294)" fill="#ee6161"/>
        </g>
      </g>
      <ellipse id="Ellipse_22" data-name="Ellipse 22" cx="4.483" cy="3.744" rx="4.483" ry="3.744" transform="translate(10.781 19.634) rotate(-38.257)" fill="#ee6161"/>
    </g>
    <text id="Covid-19" transform="translate(189 48)" fill="#707070" font-size="20" font-family="LucidaBright-Demi, Lucida Bright" font-weight="300"><tspan x="0" y="0">Covid-19</tspan></text>
  </g>
</svg>
